<?xml version="1.0" encoding="UTF-8" standalone="no"?>
<!DOCTYPE svg PUBLIC "-//W3C//DTD SVG 1.1//EN"
 "http://www.w3.org/Graphics/SVG/1.1/DTD/svg11.dtd">
<!-- Generated by graphviz version 2.38.0 (20140413.2041)
 -->
<!-- Title: dependencies Pages: 1 -->
<svg width="504pt" height="284pt"
 viewBox="0.00 0.00 504.00 284.00" xmlns="http://www.w3.org/2000/svg" xmlns:xlink="http://www.w3.org/1999/xlink">
<g id="graph0" class="graph" transform="scale(1 1) rotate(0) translate(4 280)">
<title>dependencies</title>
<polygon fill="white" stroke="none" points="-4,4 -4,-280 500,-280 500,4 -4,4"/>
<text text-anchor="start" x="227.009" y="-42.4" font-family="sans-serif" font-weight="bold" font-size="14.00">Legend</text>
<polygon fill="#ffffb3" stroke="none" points="14,-10 14,-30 34,-30 34,-10 14,-10"/>
<text text-anchor="start" x="37.629" y="-15.4" font-family="sans-serif" font-size="14.00"> &#160;Declarations</text>
<polygon fill="#8dd3c7" stroke="none" points="127,-10 127,-30 147,-30 147,-10 127,-10"/>
<text text-anchor="start" x="150.725" y="-15.4" font-family="sans-serif" font-size="14.00"> &#160;Module</text>
<polygon fill="#80b1d3" stroke="none" points="213,-10 213,-30 233,-30 233,-10 213,-10"/>
<text text-anchor="start" x="236.781" y="-15.4" font-family="sans-serif" font-size="14.00"> &#160;Bootstrap</text>
<polygon fill="#fdb462" stroke="none" points="310,-10 310,-30 330,-30 330,-10 310,-10"/>
<text text-anchor="start" x="333.673" y="-15.4" font-family="sans-serif" font-size="14.00"> &#160;Providers</text>
<polygon fill="#fb8072" stroke="none" points="406,-10 406,-30 426,-30 426,-10 406,-10"/>
<text text-anchor="start" x="429.726" y="-15.4" font-family="sans-serif" font-size="14.00"> &#160;Exports</text>
<g id="clust1" class="cluster"><title>cluster_RebirthEChartsModule</title>
<polygon fill="none" stroke="black" stroke-dasharray="1,5" points="167,-70 167,-268 329,-268 329,-70 167,-70"/>
</g>
<g id="clust3" class="cluster"><title>cluster_RebirthEChartsModule_imports</title>
<polygon fill="none" stroke="black" points="188,-78 188,-130 308,-130 308,-78 188,-78"/>
</g>
<g id="clust4" class="cluster"><title>cluster_RebirthEChartsModule_exports</title>
<polygon fill="none" stroke="black" points="186,-208 186,-260 310,-260 310,-208 186,-208"/>
</g>
<!-- EChartsModule -->
<g id="node1" class="node"><title>EChartsModule</title>
<polygon fill="#8dd3c7" stroke="black" points="300.15,-122 297.15,-126 276.15,-126 273.15,-122 195.85,-122 195.85,-86 300.15,-86 300.15,-122"/>
<text text-anchor="middle" x="248" y="-99.8" font-family="Times,serif" font-size="14.00">EChartsModule</text>
</g>
<!-- RebirthEChartsModule -->
<g id="node2" class="node"><title>RebirthEChartsModule</title>
<polygon fill="#8dd3c7" stroke="black" points="321.143,-187 318.143,-191 297.143,-191 294.143,-187 174.857,-187 174.857,-151 321.143,-151 321.143,-187"/>
<text text-anchor="middle" x="248" y="-164.8" font-family="Times,serif" font-size="14.00">RebirthEChartsModule</text>
</g>
<!-- EChartsModule&#45;&gt;RebirthEChartsModule -->
<g id="edge1" class="edge"><title>EChartsModule&#45;&gt;RebirthEChartsModule</title>
<path fill="none" stroke="black" d="M248,-122.106C248,-122.106 248,-140.991 248,-140.991"/>
<polygon fill="black" stroke="black" points="244.5,-140.991 248,-150.991 251.5,-140.991 244.5,-140.991"/>
</g>
<!-- EChartsModule  -->
<g id="node3" class="node"><title>EChartsModule </title>
<polygon fill="#fb8072" stroke="black" points="302.15,-252 193.85,-252 193.85,-216 302.15,-216 302.15,-252"/>
<text text-anchor="middle" x="248" y="-229.8" font-family="Times,serif" font-size="14.00">EChartsModule </text>
</g>
<!-- RebirthEChartsModule&#45;&gt;EChartsModule  -->
<g id="edge2" class="edge"><title>RebirthEChartsModule&#45;&gt;EChartsModule </title>
<path fill="none" stroke="black" stroke-dasharray="5,2" d="M248,-187.106C248,-187.106 248,-205.991 248,-205.991"/>
<polygon fill="black" stroke="black" points="244.5,-205.991 248,-215.991 251.5,-205.991 244.5,-205.991"/>
</g>
</g>
</svg>
