<?xml version="1.0" encoding="UTF-8" standalone="no"?>
<!DOCTYPE svg PUBLIC "-//W3C//DTD SVG 1.1//EN"
 "http://www.w3.org/Graphics/SVG/1.1/DTD/svg11.dtd">
<!-- Generated by graphviz version 2.38.0 (20140413.2041)
 -->
<!-- Title: dependencies Pages: 1 -->
<svg width="2049pt" height="496pt"
 viewBox="0.00 0.00 2049.00 496.00" xmlns="http://www.w3.org/2000/svg" xmlns:xlink="http://www.w3.org/1999/xlink">
<g id="graph0" class="graph" transform="scale(1 1) rotate(0) translate(4 492)">
<title>dependencies</title>
<polygon fill="white" stroke="none" points="-4,4 -4,-492 2045,-492 2045,4 -4,4"/>
<text text-anchor="start" x="999.509" y="-42.4" font-family="sans-serif" font-weight="bold" font-size="14.00">Legend</text>
<polygon fill="#ffffb3" stroke="none" points="786.5,-10 786.5,-30 806.5,-30 806.5,-10 786.5,-10"/>
<text text-anchor="start" x="810.129" y="-15.4" font-family="sans-serif" font-size="14.00"> &#160;Declarations</text>
<polygon fill="#8dd3c7" stroke="none" points="899.5,-10 899.5,-30 919.5,-30 919.5,-10 899.5,-10"/>
<text text-anchor="start" x="923.225" y="-15.4" font-family="sans-serif" font-size="14.00"> &#160;Module</text>
<polygon fill="#80b1d3" stroke="none" points="985.5,-10 985.5,-30 1005.5,-30 1005.5,-10 985.5,-10"/>
<text text-anchor="start" x="1009.28" y="-15.4" font-family="sans-serif" font-size="14.00"> &#160;Bootstrap</text>
<polygon fill="#fdb462" stroke="none" points="1082.5,-10 1082.5,-30 1102.5,-30 1102.5,-10 1082.5,-10"/>
<text text-anchor="start" x="1106.17" y="-15.4" font-family="sans-serif" font-size="14.00"> &#160;Providers</text>
<polygon fill="#fb8072" stroke="none" points="1178.5,-10 1178.5,-30 1198.5,-30 1198.5,-10 1178.5,-10"/>
<text text-anchor="start" x="1202.23" y="-15.4" font-family="sans-serif" font-size="14.00"> &#160;Exports</text>
<g id="clust1" class="cluster"><title>cluster_AppModule</title>
<polygon fill="none" stroke="black" stroke-dasharray="1,5" points="901,-276 901,-480 1885,-480 1885,-276 901,-276"/>
</g>
<g id="clust2" class="cluster"><title>cluster_AppModule_declarations</title>
<polygon fill="none" stroke="black" points="1755,-284 1755,-336 1877,-336 1877,-284 1755,-284"/>
</g>
<g id="clust4" class="cluster"><title>cluster_AppModule_imports</title>
<polygon fill="none" stroke="black" points="909,-284 909,-336 1747,-336 1747,-284 909,-284"/>
</g>
<g id="clust6" class="cluster"><title>cluster_AppModule_bootstrap</title>
<polygon fill="none" stroke="black" points="1387,-420 1387,-472 1511,-472 1511,-420 1387,-420"/>
</g>
<g id="clust8" class="cluster"><title>cluster_EChartsDemoModule</title>
<polygon fill="none" stroke="black" stroke-dasharray="1,5" points="1263,-200 1263,-268 1943,-268 1943,-200 1263,-200"/>
</g>
<g id="clust9" class="cluster"><title>cluster_EChartsDemoModule_declarations</title>
<polygon fill="none" stroke="black" points="1759,-208 1759,-260 1935,-260 1935,-208 1759,-208"/>
</g>
<g id="clust11" class="cluster"><title>cluster_EChartsDemoModule_imports</title>
<polygon fill="none" stroke="black" points="1459,-208 1459,-260 1751,-260 1751,-208 1459,-208"/>
</g>
<g id="clust12" class="cluster"><title>cluster_EChartsDemoModule_exports</title>
<polygon fill="none" stroke="black" points="1271,-208 1271,-260 1451,-260 1451,-208 1271,-208"/>
</g>
<g id="clust15" class="cluster"><title>cluster_EChartsModule</title>
<polygon fill="none" stroke="black" stroke-dasharray="1,5" points="1093,-70 1093,-268 1255,-268 1255,-70 1093,-70"/>
</g>
<g id="clust16" class="cluster"><title>cluster_EChartsModule_declarations</title>
<polygon fill="none" stroke="black" points="1105,-78 1105,-130 1247,-130 1247,-78 1105,-78"/>
</g>
<g id="clust19" class="cluster"><title>cluster_EChartsModule_exports</title>
<polygon fill="none" stroke="black" points="1101,-208 1101,-260 1247,-260 1247,-208 1101,-208"/>
</g>
<g id="clust22" class="cluster"><title>cluster_RebirthEChartsModule</title>
<polygon fill="none" stroke="black" stroke-dasharray="1,5" points="1893,-276 1893,-344 2033,-344 2033,-276 1893,-276"/>
</g>
<g id="clust25" class="cluster"><title>cluster_RebirthEChartsModule_exports</title>
<polygon fill="none" stroke="black" points="1901,-284 1901,-336 2025,-336 2025,-284 1901,-284"/>
</g>
<g id="clust28" class="cluster"><title>cluster_SharedModule</title>
<polygon fill="none" stroke="black" stroke-dasharray="1,5" points="8,-200 8,-412 893,-412 893,-200 8,-200"/>
</g>
<g id="clust29" class="cluster"><title>cluster_SharedModule_declarations</title>
<polygon fill="none" stroke="black" points="598,-208 598,-260 885,-260 885,-208 598,-208"/>
</g>
<g id="clust32" class="cluster"><title>cluster_SharedModule_imports</title>
<polygon fill="none" stroke="black" points="16,-208 16,-260 590,-260 590,-208 16,-208"/>
</g>
<g id="clust33" class="cluster"><title>cluster_SharedModule_exports</title>
<polygon fill="none" stroke="black" points="148,-352 148,-404 861,-404 861,-352 148,-352"/>
</g>
<!-- AppComponent -->
<g id="node1" class="node"><title>AppComponent</title>
<polygon fill="#ffffb3" stroke="black" points="1868.94,-328 1763.06,-328 1763.06,-292 1868.94,-292 1868.94,-328"/>
<text text-anchor="middle" x="1816" y="-305.8" font-family="Times,serif" font-size="14.00">AppComponent</text>
</g>
<!-- AppModule -->
<g id="node2" class="node"><title>AppModule</title>
<polygon fill="#8dd3c7" stroke="black" points="1490.66,-396 1487.66,-400 1466.66,-400 1463.66,-396 1407.34,-396 1407.34,-360 1490.66,-360 1490.66,-396"/>
<text text-anchor="middle" x="1449" y="-373.8" font-family="Times,serif" font-size="14.00">AppModule</text>
</g>
<!-- AppComponent&#45;&gt;AppModule -->
<g id="edge1" class="edge"><title>AppComponent&#45;&gt;AppModule</title>
<path fill="none" stroke="black" d="M1816,-328.292C1816,-350.206 1816,-384 1816,-384 1816,-384 1500.74,-384 1500.74,-384"/>
<polygon fill="black" stroke="black" points="1500.74,-380.5 1490.74,-384 1500.74,-387.5 1500.74,-380.5"/>
</g>
<!-- AppComponent  -->
<g id="node8" class="node"><title>AppComponent </title>
<polygon fill="#80b1d3" stroke="black" points="1503.44,-464 1394.56,-464 1394.56,-428 1503.44,-428 1503.44,-464"/>
<text text-anchor="middle" x="1449" y="-441.8" font-family="Times,serif" font-size="14.00">AppComponent </text>
</g>
<!-- AppModule&#45;&gt;AppComponent  -->
<g id="edge7" class="edge"><title>AppModule&#45;&gt;AppComponent </title>
<path fill="none" stroke="black" stroke-dasharray="1,5" d="M1449,-396.223C1449,-396.223 1449,-417.727 1449,-417.727"/>
<polygon fill="black" stroke="black" points="1445.5,-417.727 1449,-427.727 1452.5,-417.727 1445.5,-417.727"/>
</g>
<!-- BrowserModule -->
<g id="node3" class="node"><title>BrowserModule</title>
<polygon fill="#8dd3c7" stroke="black" points="1582.47,-328 1579.47,-332 1558.47,-332 1555.47,-328 1475.53,-328 1475.53,-292 1582.47,-292 1582.47,-328"/>
<text text-anchor="middle" x="1529" y="-305.8" font-family="Times,serif" font-size="14.00">BrowserModule</text>
</g>
<!-- BrowserModule&#45;&gt;AppModule -->
<g id="edge2" class="edge"><title>BrowserModule&#45;&gt;AppModule</title>
<path fill="none" stroke="black" d="M1483.17,-328.223C1483.17,-328.223 1483.17,-349.727 1483.17,-349.727"/>
<polygon fill="black" stroke="black" points="1479.67,-349.727 1483.17,-359.727 1486.67,-349.727 1479.67,-349.727"/>
</g>
<!-- RouterModule.forRoot(args) -->
<g id="node4" class="node"><title>RouterModule.forRoot(args)</title>
<polygon fill="#8dd3c7" stroke="black" points="1457.84,-328 1454.84,-332 1433.84,-332 1430.84,-328 1280.16,-328 1280.16,-292 1457.84,-292 1457.84,-328"/>
<text text-anchor="middle" x="1369" y="-305.8" font-family="Times,serif" font-size="14.00">RouterModule.forRoot(args)</text>
</g>
<!-- RouterModule.forRoot(args)&#45;&gt;AppModule -->
<g id="edge3" class="edge"><title>RouterModule.forRoot(args)&#45;&gt;AppModule</title>
<path fill="none" stroke="black" d="M1432.42,-328.223C1432.42,-328.223 1432.42,-349.727 1432.42,-349.727"/>
<polygon fill="black" stroke="black" points="1428.92,-349.727 1432.42,-359.727 1435.92,-349.727 1428.92,-349.727"/>
</g>
<!-- SharedModule.forRoot() -->
<g id="node5" class="node"><title>SharedModule.forRoot()</title>
<polygon fill="#8dd3c7" stroke="black" points="1262.29,-328 1259.29,-332 1238.29,-332 1235.29,-328 1107.71,-328 1107.71,-292 1262.29,-292 1262.29,-328"/>
<text text-anchor="middle" x="1185" y="-305.8" font-family="Times,serif" font-size="14.00">SharedModule.forRoot()</text>
</g>
<!-- SharedModule.forRoot()&#45;&gt;AppModule -->
<g id="edge4" class="edge"><title>SharedModule.forRoot()&#45;&gt;AppModule</title>
<path fill="none" stroke="black" d="M1185,-328.267C1185,-346.555 1185,-372 1185,-372 1185,-372 1397.17,-372 1397.17,-372"/>
<polygon fill="black" stroke="black" points="1397.17,-375.5 1407.17,-372 1397.17,-368.5 1397.17,-375.5"/>
</g>
<!-- RebirthUIModule.forRoot() -->
<g id="node6" class="node"><title>RebirthUIModule.forRoot()</title>
<polygon fill="#8dd3c7" stroke="black" points="1089.18,-328 1086.18,-332 1065.18,-332 1062.18,-328 916.82,-328 916.82,-292 1089.18,-292 1089.18,-328"/>
<text text-anchor="middle" x="1003" y="-305.8" font-family="Times,serif" font-size="14.00">RebirthUIModule.forRoot()</text>
</g>
<!-- RebirthUIModule.forRoot()&#45;&gt;AppModule -->
<g id="edge5" class="edge"><title>RebirthUIModule.forRoot()&#45;&gt;AppModule</title>
<path fill="none" stroke="black" d="M1003,-328.292C1003,-350.206 1003,-384 1003,-384 1003,-384 1397.04,-384 1397.04,-384"/>
<polygon fill="black" stroke="black" points="1397.04,-387.5 1407.04,-384 1397.04,-380.5 1397.04,-387.5"/>
</g>
<!-- EChartsDemoModule -->
<g id="node7" class="node"><title>EChartsDemoModule</title>
<polygon fill="#8dd3c7" stroke="black" points="1739.36,-328 1736.36,-332 1715.36,-332 1712.36,-328 1600.64,-328 1600.64,-292 1739.36,-292 1739.36,-328"/>
<text text-anchor="middle" x="1670" y="-305.8" font-family="Times,serif" font-size="14.00">EChartsDemoModule</text>
</g>
<!-- EChartsDemoModule&#45;&gt;AppModule -->
<g id="edge6" class="edge"><title>EChartsDemoModule&#45;&gt;AppModule</title>
<path fill="none" stroke="black" d="M1670,-328.267C1670,-346.555 1670,-372 1670,-372 1670,-372 1500.83,-372 1500.83,-372"/>
<polygon fill="black" stroke="black" points="1500.83,-368.5 1490.83,-372 1500.83,-375.5 1500.83,-368.5"/>
</g>
<!-- EChartsDemoComponent  -->
<g id="node12" class="node"><title>EChartsDemoComponent </title>
<polygon fill="#fb8072" stroke="black" points="1443.14,-252 1278.86,-252 1278.86,-216 1443.14,-216 1443.14,-252"/>
<text text-anchor="middle" x="1361" y="-229.8" font-family="Times,serif" font-size="14.00">EChartsDemoComponent </text>
</g>
<!-- EChartsDemoModule&#45;&gt;EChartsDemoComponent  -->
<g id="edge11" class="edge"><title>EChartsDemoModule&#45;&gt;EChartsDemoComponent </title>
<path fill="none" stroke="black" stroke-dasharray="5,2" d="M1656.11,-291.806C1656.11,-283.722 1656.11,-276 1656.11,-276 1656.11,-276 1361.7,-276 1361.7,-276 1361.7,-276 1361.7,-262.056 1361.7,-262.056"/>
<polygon fill="black" stroke="black" points="1365.2,-262.055 1361.7,-252.056 1358.2,-262.056 1365.2,-262.055"/>
</g>
<!-- EChartsDemoComponent -->
<g id="node9" class="node"><title>EChartsDemoComponent</title>
<polygon fill="#ffffb3" stroke="black" points="1927.14,-252 1766.86,-252 1766.86,-216 1927.14,-216 1927.14,-252"/>
<text text-anchor="middle" x="1847" y="-229.8" font-family="Times,serif" font-size="14.00">EChartsDemoComponent</text>
</g>
<!-- EChartsDemoComponent&#45;&gt;EChartsDemoModule -->
<g id="edge8" class="edge"><title>EChartsDemoComponent&#45;&gt;EChartsDemoModule</title>
<path fill="none" stroke="black" d="M1766.73,-234C1758.62,-234 1753.3,-234 1753.3,-234 1753.3,-234 1753.3,-310 1753.3,-310 1753.3,-310 1749.55,-310 1749.55,-310"/>
<polygon fill="black" stroke="black" points="1749.55,-306.5 1739.55,-310 1749.55,-313.5 1749.55,-306.5"/>
</g>
<!-- CommonModule -->
<g id="node10" class="node"><title>CommonModule</title>
<polygon fill="#8dd3c7" stroke="black" points="1578.67,-252 1575.67,-256 1554.67,-256 1551.67,-252 1467.33,-252 1467.33,-216 1578.67,-216 1578.67,-252"/>
<text text-anchor="middle" x="1523" y="-229.8" font-family="Times,serif" font-size="14.00">CommonModule</text>
</g>
<!-- CommonModule&#45;&gt;EChartsDemoModule -->
<g id="edge9" class="edge"><title>CommonModule&#45;&gt;EChartsDemoModule</title>
<path fill="none" stroke="black" d="M1578.89,-234C1585.29,-234 1589.58,-234 1589.58,-234 1589.58,-234 1589.58,-310 1589.58,-310 1589.58,-310 1590.67,-310 1590.67,-310"/>
<polygon fill="black" stroke="black" points="1590.43,-313.5 1600.43,-310 1590.43,-306.5 1590.43,-313.5"/>
</g>
<!-- EChartsModule -->
<g id="node14" class="node"><title>EChartsModule</title>
<polygon fill="#8dd3c7" stroke="black" points="1237.15,-187 1234.15,-191 1213.15,-191 1210.15,-187 1132.85,-187 1132.85,-151 1237.15,-151 1237.15,-187"/>
<text text-anchor="middle" x="1185" y="-164.8" font-family="Times,serif" font-size="14.00">EChartsModule</text>
</g>
<!-- CommonModule&#45;&gt;EChartsModule -->
<g id="edge13" class="edge"><title>CommonModule&#45;&gt;EChartsModule</title>
<path fill="none" stroke="black" d="M1523,-215.977C1523,-198.627 1523,-175 1523,-175 1523,-175 1247.44,-175 1247.44,-175"/>
<polygon fill="black" stroke="black" points="1247.44,-171.5 1237.44,-175 1247.44,-178.5 1247.44,-171.5"/>
</g>
<!-- SharedModule -->
<g id="node19" class="node"><title>SharedModule</title>
<polygon fill="#8dd3c7" stroke="black" points="582.423,-328 579.423,-332 558.423,-332 555.423,-328 483.577,-328 483.577,-292 582.423,-292 582.423,-328"/>
<text text-anchor="middle" x="533" y="-305.8" font-family="Times,serif" font-size="14.00">SharedModule</text>
</g>
<!-- CommonModule&#45;&gt;SharedModule -->
<g id="edge19" class="edge"><title>CommonModule&#45;&gt;SharedModule</title>
<path fill="none" stroke="black" d="M1471.34,-252.058C1471.34,-256.495 1471.34,-260 1471.34,-260 1471.34,-260 533,-260 533,-260 533,-260 533,-281.949 533,-281.949"/>
<polygon fill="black" stroke="black" points="529.5,-281.949 533,-291.949 536.5,-281.949 529.5,-281.949"/>
</g>
<!-- RebirthEChartsModule -->
<g id="node11" class="node"><title>RebirthEChartsModule</title>
<polygon fill="#8dd3c7" stroke="black" points="1743.14,-252 1740.14,-256 1719.14,-256 1716.14,-252 1596.86,-252 1596.86,-216 1743.14,-216 1743.14,-252"/>
<text text-anchor="middle" x="1670" y="-229.8" font-family="Times,serif" font-size="14.00">RebirthEChartsModule</text>
</g>
<!-- RebirthEChartsModule&#45;&gt;EChartsDemoModule -->
<g id="edge10" class="edge"><title>RebirthEChartsModule&#45;&gt;EChartsDemoModule</title>
<path fill="none" stroke="black" d="M1683.89,-252.011C1683.89,-252.011 1683.89,-281.855 1683.89,-281.855"/>
<polygon fill="black" stroke="black" points="1680.39,-281.855 1683.89,-291.855 1687.39,-281.855 1680.39,-281.855"/>
</g>
<!-- EChartsModule  -->
<g id="node16" class="node"><title>EChartsModule </title>
<polygon fill="#fb8072" stroke="black" points="2017.15,-328 1908.85,-328 1908.85,-292 2017.15,-292 2017.15,-328"/>
<text text-anchor="middle" x="1963" y="-305.8" font-family="Times,serif" font-size="14.00">EChartsModule </text>
</g>
<!-- RebirthEChartsModule&#45;&gt;EChartsModule  -->
<g id="edge16" class="edge"><title>RebirthEChartsModule&#45;&gt;EChartsModule </title>
<path fill="none" stroke="black" stroke-dasharray="5,2" d="M1711.66,-252.194C1711.66,-260.278 1711.66,-268 1711.66,-268 1711.66,-268 1918.12,-268 1918.12,-268 1918.12,-268 1918.12,-281.944 1918.12,-281.944"/>
<polygon fill="black" stroke="black" points="1914.62,-281.944 1918.12,-291.944 1921.62,-281.945 1914.62,-281.944"/>
</g>
<!-- RebirthEChartsModule&#45;&gt;SharedModule -->
<g id="edge25" class="edge"><title>RebirthEChartsModule&#45;&gt;SharedModule</title>
<path fill="none" stroke="black" d="M1628.34,-252.051C1628.34,-266.373 1628.34,-284 1628.34,-284 1628.34,-284 557.413,-284 557.413,-284 557.413,-284 557.413,-284.794 557.413,-284.794"/>
<polygon fill="black" stroke="black" points="553.913,-281.942 557.413,-291.942 560.913,-281.942 553.913,-281.942"/>
</g>
<!-- EChartsComponent -->
<g id="node13" class="node"><title>EChartsComponent</title>
<polygon fill="#ffffb3" stroke="black" points="1239.43,-122 1112.57,-122 1112.57,-86 1239.43,-86 1239.43,-122"/>
<text text-anchor="middle" x="1176" y="-99.8" font-family="Times,serif" font-size="14.00">EChartsComponent</text>
</g>
<!-- EChartsComponent&#45;&gt;EChartsModule -->
<g id="edge12" class="edge"><title>EChartsComponent&#45;&gt;EChartsModule</title>
<path fill="none" stroke="black" d="M1185,-122.106C1185,-122.106 1185,-140.991 1185,-140.991"/>
<polygon fill="black" stroke="black" points="1181.5,-140.991 1185,-150.991 1188.5,-140.991 1181.5,-140.991"/>
</g>
<!-- EChartsModule&#45;&gt;RebirthEChartsModule -->
<g id="edge15" class="edge"><title>EChartsModule&#45;&gt;RebirthEChartsModule</title>
<path fill="none" stroke="black" d="M1237.36,-163C1362.77,-163 1670,-163 1670,-163 1670,-163 1670,-205.716 1670,-205.716"/>
<polygon fill="black" stroke="black" points="1666.5,-205.716 1670,-215.716 1673.5,-205.716 1666.5,-205.716"/>
</g>
<!-- EChartsComponent  -->
<g id="node15" class="node"><title>EChartsComponent </title>
<polygon fill="#fb8072" stroke="black" points="1238.93,-252 1109.07,-252 1109.07,-216 1238.93,-216 1238.93,-252"/>
<text text-anchor="middle" x="1174" y="-229.8" font-family="Times,serif" font-size="14.00">EChartsComponent </text>
</g>
<!-- EChartsModule&#45;&gt;EChartsComponent  -->
<g id="edge14" class="edge"><title>EChartsModule&#45;&gt;EChartsComponent </title>
<path fill="none" stroke="black" stroke-dasharray="5,2" d="M1185,-187.106C1185,-187.106 1185,-205.991 1185,-205.991"/>
<polygon fill="black" stroke="black" points="1181.5,-205.991 1185,-215.991 1188.5,-205.991 1181.5,-205.991"/>
</g>
<!-- DocComponent -->
<g id="node17" class="node"><title>DocComponent</title>
<polygon fill="#ffffb3" stroke="black" points="877.154,-252 772.846,-252 772.846,-216 877.154,-216 877.154,-252"/>
<text text-anchor="middle" x="825" y="-229.8" font-family="Times,serif" font-size="14.00">DocComponent</text>
</g>
<!-- DocComponent&#45;&gt;SharedModule -->
<g id="edge17" class="edge"><title>DocComponent&#45;&gt;SharedModule</title>
<path fill="none" stroke="black" d="M813.071,-252.045C813.071,-273.662 813.071,-307 813.071,-307 813.071,-307 592.426,-307 592.426,-307"/>
<polygon fill="black" stroke="black" points="592.426,-303.5 582.426,-307 592.426,-310.5 592.426,-303.5"/>
</g>
<!-- DocContentComponent -->
<g id="node18" class="node"><title>DocContentComponent</title>
<polygon fill="#ffffb3" stroke="black" points="754.486,-252 605.514,-252 605.514,-216 754.486,-216 754.486,-252"/>
<text text-anchor="middle" x="680" y="-229.8" font-family="Times,serif" font-size="14.00">DocContentComponent</text>
</g>
<!-- DocContentComponent&#45;&gt;SharedModule -->
<g id="edge18" class="edge"><title>DocContentComponent&#45;&gt;SharedModule</title>
<path fill="none" stroke="black" d="M609.545,-252.035C609.545,-271.576 609.545,-300 609.545,-300 609.545,-300 592.343,-300 592.343,-300"/>
<polygon fill="black" stroke="black" points="592.343,-296.5 582.343,-300 592.343,-303.5 592.343,-296.5"/>
</g>
<!-- CommonModule  -->
<g id="node25" class="node"><title>CommonModule </title>
<polygon fill="#fb8072" stroke="black" points="613.668,-396 498.332,-396 498.332,-360 613.668,-360 613.668,-396"/>
<text text-anchor="middle" x="556" y="-373.8" font-family="Times,serif" font-size="14.00">CommonModule </text>
</g>
<!-- SharedModule&#45;&gt;CommonModule  -->
<g id="edge26" class="edge"><title>SharedModule&#45;&gt;CommonModule </title>
<path fill="none" stroke="black" stroke-dasharray="5,2" d="M540.314,-328.223C540.314,-328.223 540.314,-349.727 540.314,-349.727"/>
<polygon fill="black" stroke="black" points="536.814,-349.727 540.314,-359.727 543.814,-349.727 536.814,-349.727"/>
</g>
<!-- FormsModule  -->
<g id="node26" class="node"><title>FormsModule </title>
<polygon fill="#fb8072" stroke="black" points="480.328,-396 381.672,-396 381.672,-360 480.328,-360 480.328,-396"/>
<text text-anchor="middle" x="431" y="-373.8" font-family="Times,serif" font-size="14.00">FormsModule </text>
</g>
<!-- SharedModule&#45;&gt;FormsModule  -->
<g id="edge27" class="edge"><title>SharedModule&#45;&gt;FormsModule </title>
<path fill="none" stroke="black" stroke-dasharray="5,2" d="M483.713,-324C477.528,-324 473.316,-324 473.316,-324 473.316,-324 473.316,-349.718 473.316,-349.718"/>
<polygon fill="black" stroke="black" points="469.817,-349.718 473.316,-359.718 476.817,-349.718 469.817,-349.718"/>
</g>
<!-- RouterModule  -->
<g id="node27" class="node"><title>RouterModule </title>
<polygon fill="#fb8072" stroke="black" points="363.652,-396 262.348,-396 262.348,-360 363.652,-360 363.652,-396"/>
<text text-anchor="middle" x="313" y="-373.8" font-family="Times,serif" font-size="14.00">RouterModule </text>
</g>
<!-- SharedModule&#45;&gt;RouterModule  -->
<g id="edge28" class="edge"><title>SharedModule&#45;&gt;RouterModule </title>
<path fill="none" stroke="black" stroke-dasharray="5,2" d="M483.598,-319C415.931,-319 302.712,-319 302.712,-319 302.712,-319 302.712,-349.977 302.712,-349.977"/>
<polygon fill="black" stroke="black" points="299.212,-349.977 302.712,-359.977 306.212,-349.978 299.212,-349.977"/>
</g>
<!-- HttpModule  -->
<g id="node28" class="node"><title>HttpModule </title>
<polygon fill="#fb8072" stroke="black" points="243.938,-396 156.062,-396 156.062,-360 243.938,-360 243.938,-396"/>
<text text-anchor="middle" x="200" y="-373.8" font-family="Times,serif" font-size="14.00">HttpModule </text>
</g>
<!-- SharedModule&#45;&gt;HttpModule  -->
<g id="edge29" class="edge"><title>SharedModule&#45;&gt;HttpModule </title>
<path fill="none" stroke="black" stroke-dasharray="5,2" d="M483.506,-315C390.743,-315 200,-315 200,-315 200,-315 200,-349.778 200,-349.778"/>
<polygon fill="black" stroke="black" points="196.5,-349.778 200,-359.778 203.5,-349.778 196.5,-349.778"/>
</g>
<!-- JsonpModule  -->
<g id="node29" class="node"><title>JsonpModule </title>
<polygon fill="#fb8072" stroke="black" points="853.439,-396 758.561,-396 758.561,-360 853.439,-360 853.439,-396"/>
<text text-anchor="middle" x="806" y="-373.8" font-family="Times,serif" font-size="14.00">JsonpModule </text>
</g>
<!-- SharedModule&#45;&gt;JsonpModule  -->
<g id="edge30" class="edge"><title>SharedModule&#45;&gt;JsonpModule </title>
<path fill="none" stroke="black" stroke-dasharray="5,2" d="M582.329,-314C650.607,-314 765.602,-314 765.602,-314 765.602,-314 765.602,-349.831 765.602,-349.831"/>
<polygon fill="black" stroke="black" points="762.102,-349.831 765.602,-359.831 769.102,-349.831 762.102,-349.831"/>
</g>
<!-- DocComponent  -->
<g id="node30" class="node"><title>DocComponent </title>
<polygon fill="#fb8072" stroke="black" points="740.154,-396 631.846,-396 631.846,-360 740.154,-360 740.154,-396"/>
<text text-anchor="middle" x="686" y="-373.8" font-family="Times,serif" font-size="14.00">DocComponent </text>
</g>
<!-- SharedModule&#45;&gt;DocComponent  -->
<g id="edge31" class="edge"><title>SharedModule&#45;&gt;DocComponent </title>
<path fill="none" stroke="black" stroke-dasharray="5,2" d="M582.252,-321C626.979,-321 686,-321 686,-321 686,-321 686,-349.965 686,-349.965"/>
<polygon fill="black" stroke="black" points="682.5,-349.965 686,-359.965 689.5,-349.965 682.5,-349.965"/>
</g>
<!-- FormsModule -->
<g id="node20" class="node"><title>FormsModule</title>
<polygon fill="#8dd3c7" stroke="black" points="119.829,-252 116.829,-256 95.8288,-256 92.8288,-252 24.1712,-252 24.1712,-216 119.829,-216 119.829,-252"/>
<text text-anchor="middle" x="72" y="-229.8" font-family="Times,serif" font-size="14.00">FormsModule</text>
</g>
<!-- FormsModule&#45;&gt;SharedModule -->
<g id="edge20" class="edge"><title>FormsModule&#45;&gt;SharedModule</title>
<path fill="none" stroke="black" d="M72,-252.011C72,-274.485 72,-310 72,-310 72,-310 473.665,-310 473.665,-310"/>
<polygon fill="black" stroke="black" points="473.665,-313.5 483.665,-310 473.665,-306.5 473.665,-313.5"/>
</g>
<!-- RouterModule -->
<g id="node21" class="node"><title>RouterModule</title>
<polygon fill="#8dd3c7" stroke="black" points="581.653,-252 578.653,-256 557.653,-256 554.653,-252 484.347,-252 484.347,-216 581.653,-216 581.653,-252"/>
<text text-anchor="middle" x="533" y="-229.8" font-family="Times,serif" font-size="14.00">RouterModule</text>
</g>
<!-- RouterModule&#45;&gt;SharedModule -->
<g id="edge21" class="edge"><title>RouterModule&#45;&gt;SharedModule</title>
<path fill="none" stroke="black" d="M508.587,-252.011C508.587,-252.011 508.587,-281.855 508.587,-281.855"/>
<polygon fill="black" stroke="black" points="505.087,-281.855 508.587,-291.855 512.087,-281.855 505.087,-281.855"/>
</g>
<!-- HttpModule -->
<g id="node22" class="node"><title>HttpModule</title>
<polygon fill="#8dd3c7" stroke="black" points="466.439,-252 463.439,-256 442.439,-256 439.439,-252 381.561,-252 381.561,-216 466.439,-216 466.439,-252"/>
<text text-anchor="middle" x="424" y="-229.8" font-family="Times,serif" font-size="14.00">HttpModule</text>
</g>
<!-- HttpModule&#45;&gt;SharedModule -->
<g id="edge22" class="edge"><title>HttpModule&#45;&gt;SharedModule</title>
<path fill="none" stroke="black" d="M424,-252.222C424,-270.829 424,-297 424,-297 424,-297 473.603,-297 473.603,-297"/>
<polygon fill="black" stroke="black" points="473.603,-300.5 483.603,-297 473.603,-293.5 473.603,-300.5"/>
</g>
<!-- JsonpModule -->
<g id="node23" class="node"><title>JsonpModule</title>
<polygon fill="#8dd3c7" stroke="black" points="363.94,-252 360.94,-256 339.94,-256 336.94,-252 272.06,-252 272.06,-216 363.94,-216 363.94,-252"/>
<text text-anchor="middle" x="318" y="-229.8" font-family="Times,serif" font-size="14.00">JsonpModule</text>
</g>
<!-- JsonpModule&#45;&gt;SharedModule -->
<g id="edge23" class="edge"><title>JsonpModule&#45;&gt;SharedModule</title>
<path fill="none" stroke="black" d="M333.144,-252.308C333.144,-272.146 333.144,-301 333.144,-301 333.144,-301 473.597,-301 473.597,-301"/>
<polygon fill="black" stroke="black" points="473.597,-304.5 483.597,-301 473.597,-297.5 473.597,-304.5"/>
</g>
<!-- RebirthUIModule -->
<g id="node24" class="node"><title>RebirthUIModule</title>
<polygon fill="#8dd3c7" stroke="black" points="254.31,-252 251.31,-256 230.31,-256 227.31,-252 137.69,-252 137.69,-216 254.31,-216 254.31,-252"/>
<text text-anchor="middle" x="196" y="-229.8" font-family="Times,serif" font-size="14.00">RebirthUIModule</text>
</g>
<!-- RebirthUIModule&#45;&gt;SharedModule -->
<g id="edge24" class="edge"><title>RebirthUIModule&#45;&gt;SharedModule</title>
<path fill="none" stroke="black" d="M249.062,-252.169C249.062,-273.498 249.062,-306 249.062,-306 249.062,-306 473.542,-306 473.542,-306"/>
<polygon fill="black" stroke="black" points="473.542,-309.5 483.542,-306 473.542,-302.5 473.542,-309.5"/>
</g>
</g>
</svg>
