<?xml version="1.0" encoding="UTF-8" standalone="no"?>
<!DOCTYPE svg PUBLIC "-//W3C//DTD SVG 1.1//EN"
 "http://www.w3.org/Graphics/SVG/1.1/DTD/svg11.dtd">
<!-- Generated by graphviz version 2.38.0 (20140413.2041)
 -->
<!-- Title: dependencies Pages: 1 -->
<svg width="2060pt" height="496pt"
 viewBox="0.00 0.00 2060.00 496.00" xmlns="http://www.w3.org/2000/svg" xmlns:xlink="http://www.w3.org/1999/xlink">
<g id="graph0" class="graph" transform="scale(1 1) rotate(0) translate(4 492)">
<title>dependencies</title>
<polygon fill="white" stroke="none" points="-4,4 -4,-492 2056,-492 2056,4 -4,4"/>
<text text-anchor="start" x="1005.01" y="-42.4" font-family="sans-serif" font-weight="bold" font-size="14.00">Legend</text>
<polygon fill="#ffffb3" stroke="none" points="792,-10 792,-30 812,-30 812,-10 792,-10"/>
<text text-anchor="start" x="815.629" y="-15.4" font-family="sans-serif" font-size="14.00"> &#160;Declarations</text>
<polygon fill="#8dd3c7" stroke="none" points="905,-10 905,-30 925,-30 925,-10 905,-10"/>
<text text-anchor="start" x="928.725" y="-15.4" font-family="sans-serif" font-size="14.00"> &#160;Module</text>
<polygon fill="#80b1d3" stroke="none" points="991,-10 991,-30 1011,-30 1011,-10 991,-10"/>
<text text-anchor="start" x="1014.78" y="-15.4" font-family="sans-serif" font-size="14.00"> &#160;Bootstrap</text>
<polygon fill="#fdb462" stroke="none" points="1088,-10 1088,-30 1108,-30 1108,-10 1088,-10"/>
<text text-anchor="start" x="1111.67" y="-15.4" font-family="sans-serif" font-size="14.00"> &#160;Providers</text>
<polygon fill="#fb8072" stroke="none" points="1184,-10 1184,-30 1204,-30 1204,-10 1184,-10"/>
<text text-anchor="start" x="1207.73" y="-15.4" font-family="sans-serif" font-size="14.00"> &#160;Exports</text>
<g id="clust1" class="cluster"><title>cluster_AppModule</title>
<polygon fill="none" stroke="black" stroke-dasharray="1,5" points="907,-276 907,-480 1896,-480 1896,-276 907,-276"/>
</g>
<g id="clust2" class="cluster"><title>cluster_AppModule_declarations</title>
<polygon fill="none" stroke="black" points="1766,-284 1766,-336 1888,-336 1888,-284 1766,-284"/>
</g>
<g id="clust4" class="cluster"><title>cluster_AppModule_imports</title>
<polygon fill="none" stroke="black" points="915,-284 915,-336 1758,-336 1758,-284 915,-284"/>
</g>
<g id="clust6" class="cluster"><title>cluster_AppModule_bootstrap</title>
<polygon fill="none" stroke="black" points="1398,-420 1398,-472 1522,-472 1522,-420 1398,-420"/>
</g>
<g id="clust8" class="cluster"><title>cluster_EChartsDemoModule</title>
<polygon fill="none" stroke="black" stroke-dasharray="1,5" points="1274,-200 1274,-268 1954,-268 1954,-200 1274,-200"/>
</g>
<g id="clust9" class="cluster"><title>cluster_EChartsDemoModule_declarations</title>
<polygon fill="none" stroke="black" points="1770,-208 1770,-260 1946,-260 1946,-208 1770,-208"/>
</g>
<g id="clust11" class="cluster"><title>cluster_EChartsDemoModule_imports</title>
<polygon fill="none" stroke="black" points="1470,-208 1470,-260 1762,-260 1762,-208 1470,-208"/>
</g>
<g id="clust12" class="cluster"><title>cluster_EChartsDemoModule_exports</title>
<polygon fill="none" stroke="black" points="1282,-208 1282,-260 1462,-260 1462,-208 1282,-208"/>
</g>
<g id="clust15" class="cluster"><title>cluster_EChartsModule</title>
<polygon fill="none" stroke="black" stroke-dasharray="1,5" points="1104,-70 1104,-268 1266,-268 1266,-70 1104,-70"/>
</g>
<g id="clust16" class="cluster"><title>cluster_EChartsModule_declarations</title>
<polygon fill="none" stroke="black" points="1116,-78 1116,-130 1258,-130 1258,-78 1116,-78"/>
</g>
<g id="clust19" class="cluster"><title>cluster_EChartsModule_exports</title>
<polygon fill="none" stroke="black" points="1112,-208 1112,-260 1258,-260 1258,-208 1112,-208"/>
</g>
<g id="clust22" class="cluster"><title>cluster_RebirthEChartsModule</title>
<polygon fill="none" stroke="black" stroke-dasharray="1,5" points="1904,-276 1904,-344 2044,-344 2044,-276 1904,-276"/>
</g>
<g id="clust25" class="cluster"><title>cluster_RebirthEChartsModule_exports</title>
<polygon fill="none" stroke="black" points="1912,-284 1912,-336 2036,-336 2036,-284 1912,-284"/>
</g>
<g id="clust28" class="cluster"><title>cluster_SharedModule</title>
<polygon fill="none" stroke="black" stroke-dasharray="1,5" points="8,-200 8,-412 899,-412 899,-200 8,-200"/>
</g>
<g id="clust29" class="cluster"><title>cluster_SharedModule_declarations</title>
<polygon fill="none" stroke="black" points="604,-208 604,-260 891,-260 891,-208 604,-208"/>
</g>
<g id="clust32" class="cluster"><title>cluster_SharedModule_imports</title>
<polygon fill="none" stroke="black" points="16,-208 16,-260 596,-260 596,-208 16,-208"/>
</g>
<g id="clust33" class="cluster"><title>cluster_SharedModule_exports</title>
<polygon fill="none" stroke="black" points="154,-352 154,-404 867,-404 867,-352 154,-352"/>
</g>
<!-- AppComponent -->
<g id="node1" class="node"><title>AppComponent</title>
<polygon fill="#ffffb3" stroke="black" points="1879.94,-328 1774.06,-328 1774.06,-292 1879.94,-292 1879.94,-328"/>
<text text-anchor="middle" x="1827" y="-305.8" font-family="Times,serif" font-size="14.00">AppComponent</text>
</g>
<!-- AppModule -->
<g id="node2" class="node"><title>AppModule</title>
<polygon fill="#8dd3c7" stroke="black" points="1501.66,-396 1498.66,-400 1477.66,-400 1474.66,-396 1418.34,-396 1418.34,-360 1501.66,-360 1501.66,-396"/>
<text text-anchor="middle" x="1460" y="-373.8" font-family="Times,serif" font-size="14.00">AppModule</text>
</g>
<!-- AppComponent&#45;&gt;AppModule -->
<g id="edge1" class="edge"><title>AppComponent&#45;&gt;AppModule</title>
<path fill="none" stroke="black" d="M1827,-328.292C1827,-350.206 1827,-384 1827,-384 1827,-384 1511.74,-384 1511.74,-384"/>
<polygon fill="black" stroke="black" points="1511.74,-380.5 1501.74,-384 1511.74,-387.5 1511.74,-380.5"/>
</g>
<!-- AppComponent  -->
<g id="node8" class="node"><title>AppComponent </title>
<polygon fill="#80b1d3" stroke="black" points="1514.44,-464 1405.56,-464 1405.56,-428 1514.44,-428 1514.44,-464"/>
<text text-anchor="middle" x="1460" y="-441.8" font-family="Times,serif" font-size="14.00">AppComponent </text>
</g>
<!-- AppModule&#45;&gt;AppComponent  -->
<g id="edge7" class="edge"><title>AppModule&#45;&gt;AppComponent </title>
<path fill="none" stroke="black" stroke-dasharray="1,5" d="M1460,-396.223C1460,-396.223 1460,-417.727 1460,-417.727"/>
<polygon fill="black" stroke="black" points="1456.5,-417.727 1460,-427.727 1463.5,-417.727 1456.5,-417.727"/>
</g>
<!-- BrowserModule -->
<g id="node3" class="node"><title>BrowserModule</title>
<polygon fill="#8dd3c7" stroke="black" points="1593.47,-328 1590.47,-332 1569.47,-332 1566.47,-328 1486.53,-328 1486.53,-292 1593.47,-292 1593.47,-328"/>
<text text-anchor="middle" x="1540" y="-305.8" font-family="Times,serif" font-size="14.00">BrowserModule</text>
</g>
<!-- BrowserModule&#45;&gt;AppModule -->
<g id="edge2" class="edge"><title>BrowserModule&#45;&gt;AppModule</title>
<path fill="none" stroke="black" d="M1494.17,-328.223C1494.17,-328.223 1494.17,-349.727 1494.17,-349.727"/>
<polygon fill="black" stroke="black" points="1490.67,-349.727 1494.17,-359.727 1497.67,-349.727 1490.67,-349.727"/>
</g>
<!-- RouterModule.forRoot(args) -->
<g id="node4" class="node"><title>RouterModule.forRoot(args)</title>
<polygon fill="#8dd3c7" stroke="black" points="1468.84,-328 1465.84,-332 1444.84,-332 1441.84,-328 1291.16,-328 1291.16,-292 1468.84,-292 1468.84,-328"/>
<text text-anchor="middle" x="1380" y="-305.8" font-family="Times,serif" font-size="14.00">RouterModule.forRoot(args)</text>
</g>
<!-- RouterModule.forRoot(args)&#45;&gt;AppModule -->
<g id="edge3" class="edge"><title>RouterModule.forRoot(args)&#45;&gt;AppModule</title>
<path fill="none" stroke="black" d="M1443.42,-328.223C1443.42,-328.223 1443.42,-349.727 1443.42,-349.727"/>
<polygon fill="black" stroke="black" points="1439.92,-349.727 1443.42,-359.727 1446.92,-349.727 1439.92,-349.727"/>
</g>
<!-- SharedModule.forRoot() -->
<g id="node5" class="node"><title>SharedModule.forRoot()</title>
<polygon fill="#8dd3c7" stroke="black" points="1273.29,-328 1270.29,-332 1249.29,-332 1246.29,-328 1118.71,-328 1118.71,-292 1273.29,-292 1273.29,-328"/>
<text text-anchor="middle" x="1196" y="-305.8" font-family="Times,serif" font-size="14.00">SharedModule.forRoot()</text>
</g>
<!-- SharedModule.forRoot()&#45;&gt;AppModule -->
<g id="edge4" class="edge"><title>SharedModule.forRoot()&#45;&gt;AppModule</title>
<path fill="none" stroke="black" d="M1196,-328.267C1196,-346.555 1196,-372 1196,-372 1196,-372 1408.17,-372 1408.17,-372"/>
<polygon fill="black" stroke="black" points="1408.17,-375.5 1418.17,-372 1408.17,-368.5 1408.17,-375.5"/>
</g>
<!-- RebirthNGModule.forRoot() -->
<g id="node6" class="node"><title>RebirthNGModule.forRoot()</title>
<polygon fill="#8dd3c7" stroke="black" points="1101.13,-328 1098.13,-332 1077.13,-332 1074.13,-328 922.874,-328 922.874,-292 1101.13,-292 1101.13,-328"/>
<text text-anchor="middle" x="1012" y="-305.8" font-family="Times,serif" font-size="14.00">RebirthNGModule.forRoot()</text>
</g>
<!-- RebirthNGModule.forRoot()&#45;&gt;AppModule -->
<g id="edge5" class="edge"><title>RebirthNGModule.forRoot()&#45;&gt;AppModule</title>
<path fill="none" stroke="black" d="M1012,-328.292C1012,-350.206 1012,-384 1012,-384 1012,-384 1408.26,-384 1408.26,-384"/>
<polygon fill="black" stroke="black" points="1408.26,-387.5 1418.26,-384 1408.26,-380.5 1408.26,-387.5"/>
</g>
<!-- EChartsDemoModule -->
<g id="node7" class="node"><title>EChartsDemoModule</title>
<polygon fill="#8dd3c7" stroke="black" points="1750.36,-328 1747.36,-332 1726.36,-332 1723.36,-328 1611.64,-328 1611.64,-292 1750.36,-292 1750.36,-328"/>
<text text-anchor="middle" x="1681" y="-305.8" font-family="Times,serif" font-size="14.00">EChartsDemoModule</text>
</g>
<!-- EChartsDemoModule&#45;&gt;AppModule -->
<g id="edge6" class="edge"><title>EChartsDemoModule&#45;&gt;AppModule</title>
<path fill="none" stroke="black" d="M1681,-328.267C1681,-346.555 1681,-372 1681,-372 1681,-372 1511.83,-372 1511.83,-372"/>
<polygon fill="black" stroke="black" points="1511.83,-368.5 1501.83,-372 1511.83,-375.5 1511.83,-368.5"/>
</g>
<!-- EChartsDemoComponent  -->
<g id="node12" class="node"><title>EChartsDemoComponent </title>
<polygon fill="#fb8072" stroke="black" points="1454.14,-252 1289.86,-252 1289.86,-216 1454.14,-216 1454.14,-252"/>
<text text-anchor="middle" x="1372" y="-229.8" font-family="Times,serif" font-size="14.00">EChartsDemoComponent </text>
</g>
<!-- EChartsDemoModule&#45;&gt;EChartsDemoComponent  -->
<g id="edge11" class="edge"><title>EChartsDemoModule&#45;&gt;EChartsDemoComponent </title>
<path fill="none" stroke="black" stroke-dasharray="5,2" d="M1667.11,-291.806C1667.11,-283.722 1667.11,-276 1667.11,-276 1667.11,-276 1372.7,-276 1372.7,-276 1372.7,-276 1372.7,-262.056 1372.7,-262.056"/>
<polygon fill="black" stroke="black" points="1376.2,-262.055 1372.7,-252.056 1369.2,-262.056 1376.2,-262.055"/>
</g>
<!-- EChartsDemoComponent -->
<g id="node9" class="node"><title>EChartsDemoComponent</title>
<polygon fill="#ffffb3" stroke="black" points="1938.14,-252 1777.86,-252 1777.86,-216 1938.14,-216 1938.14,-252"/>
<text text-anchor="middle" x="1858" y="-229.8" font-family="Times,serif" font-size="14.00">EChartsDemoComponent</text>
</g>
<!-- EChartsDemoComponent&#45;&gt;EChartsDemoModule -->
<g id="edge8" class="edge"><title>EChartsDemoComponent&#45;&gt;EChartsDemoModule</title>
<path fill="none" stroke="black" d="M1777.73,-234C1769.62,-234 1764.3,-234 1764.3,-234 1764.3,-234 1764.3,-310 1764.3,-310 1764.3,-310 1760.55,-310 1760.55,-310"/>
<polygon fill="black" stroke="black" points="1760.55,-306.5 1750.55,-310 1760.55,-313.5 1760.55,-306.5"/>
</g>
<!-- CommonModule -->
<g id="node10" class="node"><title>CommonModule</title>
<polygon fill="#8dd3c7" stroke="black" points="1589.67,-252 1586.67,-256 1565.67,-256 1562.67,-252 1478.33,-252 1478.33,-216 1589.67,-216 1589.67,-252"/>
<text text-anchor="middle" x="1534" y="-229.8" font-family="Times,serif" font-size="14.00">CommonModule</text>
</g>
<!-- CommonModule&#45;&gt;EChartsDemoModule -->
<g id="edge9" class="edge"><title>CommonModule&#45;&gt;EChartsDemoModule</title>
<path fill="none" stroke="black" d="M1589.89,-234C1596.29,-234 1600.58,-234 1600.58,-234 1600.58,-234 1600.58,-310 1600.58,-310 1600.58,-310 1601.67,-310 1601.67,-310"/>
<polygon fill="black" stroke="black" points="1601.43,-313.5 1611.43,-310 1601.43,-306.5 1601.43,-313.5"/>
</g>
<!-- EChartsModule -->
<g id="node14" class="node"><title>EChartsModule</title>
<polygon fill="#8dd3c7" stroke="black" points="1248.15,-187 1245.15,-191 1224.15,-191 1221.15,-187 1143.85,-187 1143.85,-151 1248.15,-151 1248.15,-187"/>
<text text-anchor="middle" x="1196" y="-164.8" font-family="Times,serif" font-size="14.00">EChartsModule</text>
</g>
<!-- CommonModule&#45;&gt;EChartsModule -->
<g id="edge13" class="edge"><title>CommonModule&#45;&gt;EChartsModule</title>
<path fill="none" stroke="black" d="M1534,-215.977C1534,-198.627 1534,-175 1534,-175 1534,-175 1258.44,-175 1258.44,-175"/>
<polygon fill="black" stroke="black" points="1258.44,-171.5 1248.44,-175 1258.44,-178.5 1258.44,-171.5"/>
</g>
<!-- SharedModule -->
<g id="node19" class="node"><title>SharedModule</title>
<polygon fill="#8dd3c7" stroke="black" points="588.423,-328 585.423,-332 564.423,-332 561.423,-328 489.577,-328 489.577,-292 588.423,-292 588.423,-328"/>
<text text-anchor="middle" x="539" y="-305.8" font-family="Times,serif" font-size="14.00">SharedModule</text>
</g>
<!-- CommonModule&#45;&gt;SharedModule -->
<g id="edge19" class="edge"><title>CommonModule&#45;&gt;SharedModule</title>
<path fill="none" stroke="black" d="M1482.34,-252.058C1482.34,-256.495 1482.34,-260 1482.34,-260 1482.34,-260 539,-260 539,-260 539,-260 539,-281.949 539,-281.949"/>
<polygon fill="black" stroke="black" points="535.5,-281.949 539,-291.949 542.5,-281.949 535.5,-281.949"/>
</g>
<!-- RebirthEChartsModule -->
<g id="node11" class="node"><title>RebirthEChartsModule</title>
<polygon fill="#8dd3c7" stroke="black" points="1754.14,-252 1751.14,-256 1730.14,-256 1727.14,-252 1607.86,-252 1607.86,-216 1754.14,-216 1754.14,-252"/>
<text text-anchor="middle" x="1681" y="-229.8" font-family="Times,serif" font-size="14.00">RebirthEChartsModule</text>
</g>
<!-- RebirthEChartsModule&#45;&gt;EChartsDemoModule -->
<g id="edge10" class="edge"><title>RebirthEChartsModule&#45;&gt;EChartsDemoModule</title>
<path fill="none" stroke="black" d="M1694.89,-252.011C1694.89,-252.011 1694.89,-281.855 1694.89,-281.855"/>
<polygon fill="black" stroke="black" points="1691.39,-281.855 1694.89,-291.855 1698.39,-281.855 1691.39,-281.855"/>
</g>
<!-- EChartsModule  -->
<g id="node16" class="node"><title>EChartsModule </title>
<polygon fill="#fb8072" stroke="black" points="2028.15,-328 1919.85,-328 1919.85,-292 2028.15,-292 2028.15,-328"/>
<text text-anchor="middle" x="1974" y="-305.8" font-family="Times,serif" font-size="14.00">EChartsModule </text>
</g>
<!-- RebirthEChartsModule&#45;&gt;EChartsModule  -->
<g id="edge16" class="edge"><title>RebirthEChartsModule&#45;&gt;EChartsModule </title>
<path fill="none" stroke="black" stroke-dasharray="5,2" d="M1722.66,-252.194C1722.66,-260.278 1722.66,-268 1722.66,-268 1722.66,-268 1929.12,-268 1929.12,-268 1929.12,-268 1929.12,-281.944 1929.12,-281.944"/>
<polygon fill="black" stroke="black" points="1925.62,-281.944 1929.12,-291.944 1932.62,-281.945 1925.62,-281.944"/>
</g>
<!-- RebirthEChartsModule&#45;&gt;SharedModule -->
<g id="edge25" class="edge"><title>RebirthEChartsModule&#45;&gt;SharedModule</title>
<path fill="none" stroke="black" d="M1639.34,-252.051C1639.34,-266.373 1639.34,-284 1639.34,-284 1639.34,-284 563.413,-284 563.413,-284 563.413,-284 563.413,-284.794 563.413,-284.794"/>
<polygon fill="black" stroke="black" points="559.913,-281.942 563.413,-291.942 566.913,-281.942 559.913,-281.942"/>
</g>
<!-- EChartsComponent -->
<g id="node13" class="node"><title>EChartsComponent</title>
<polygon fill="#ffffb3" stroke="black" points="1250.43,-122 1123.57,-122 1123.57,-86 1250.43,-86 1250.43,-122"/>
<text text-anchor="middle" x="1187" y="-99.8" font-family="Times,serif" font-size="14.00">EChartsComponent</text>
</g>
<!-- EChartsComponent&#45;&gt;EChartsModule -->
<g id="edge12" class="edge"><title>EChartsComponent&#45;&gt;EChartsModule</title>
<path fill="none" stroke="black" d="M1196,-122.106C1196,-122.106 1196,-140.991 1196,-140.991"/>
<polygon fill="black" stroke="black" points="1192.5,-140.991 1196,-150.991 1199.5,-140.991 1192.5,-140.991"/>
</g>
<!-- EChartsModule&#45;&gt;RebirthEChartsModule -->
<g id="edge15" class="edge"><title>EChartsModule&#45;&gt;RebirthEChartsModule</title>
<path fill="none" stroke="black" d="M1248.36,-163C1373.77,-163 1681,-163 1681,-163 1681,-163 1681,-205.716 1681,-205.716"/>
<polygon fill="black" stroke="black" points="1677.5,-205.716 1681,-215.716 1684.5,-205.716 1677.5,-205.716"/>
</g>
<!-- EChartsComponent  -->
<g id="node15" class="node"><title>EChartsComponent </title>
<polygon fill="#fb8072" stroke="black" points="1249.93,-252 1120.07,-252 1120.07,-216 1249.93,-216 1249.93,-252"/>
<text text-anchor="middle" x="1185" y="-229.8" font-family="Times,serif" font-size="14.00">EChartsComponent </text>
</g>
<!-- EChartsModule&#45;&gt;EChartsComponent  -->
<g id="edge14" class="edge"><title>EChartsModule&#45;&gt;EChartsComponent </title>
<path fill="none" stroke="black" stroke-dasharray="5,2" d="M1196,-187.106C1196,-187.106 1196,-205.991 1196,-205.991"/>
<polygon fill="black" stroke="black" points="1192.5,-205.991 1196,-215.991 1199.5,-205.991 1192.5,-205.991"/>
</g>
<!-- DocComponent -->
<g id="node17" class="node"><title>DocComponent</title>
<polygon fill="#ffffb3" stroke="black" points="883.154,-252 778.846,-252 778.846,-216 883.154,-216 883.154,-252"/>
<text text-anchor="middle" x="831" y="-229.8" font-family="Times,serif" font-size="14.00">DocComponent</text>
</g>
<!-- DocComponent&#45;&gt;SharedModule -->
<g id="edge17" class="edge"><title>DocComponent&#45;&gt;SharedModule</title>
<path fill="none" stroke="black" d="M819.071,-252.045C819.071,-273.662 819.071,-307 819.071,-307 819.071,-307 598.426,-307 598.426,-307"/>
<polygon fill="black" stroke="black" points="598.426,-303.5 588.426,-307 598.426,-310.5 598.426,-303.5"/>
</g>
<!-- DocContentComponent -->
<g id="node18" class="node"><title>DocContentComponent</title>
<polygon fill="#ffffb3" stroke="black" points="760.486,-252 611.514,-252 611.514,-216 760.486,-216 760.486,-252"/>
<text text-anchor="middle" x="686" y="-229.8" font-family="Times,serif" font-size="14.00">DocContentComponent</text>
</g>
<!-- DocContentComponent&#45;&gt;SharedModule -->
<g id="edge18" class="edge"><title>DocContentComponent&#45;&gt;SharedModule</title>
<path fill="none" stroke="black" d="M615.545,-252.035C615.545,-271.576 615.545,-300 615.545,-300 615.545,-300 598.343,-300 598.343,-300"/>
<polygon fill="black" stroke="black" points="598.343,-296.5 588.343,-300 598.343,-303.5 598.343,-296.5"/>
</g>
<!-- CommonModule  -->
<g id="node25" class="node"><title>CommonModule </title>
<polygon fill="#fb8072" stroke="black" points="619.668,-396 504.332,-396 504.332,-360 619.668,-360 619.668,-396"/>
<text text-anchor="middle" x="562" y="-373.8" font-family="Times,serif" font-size="14.00">CommonModule </text>
</g>
<!-- SharedModule&#45;&gt;CommonModule  -->
<g id="edge26" class="edge"><title>SharedModule&#45;&gt;CommonModule </title>
<path fill="none" stroke="black" stroke-dasharray="5,2" d="M546.314,-328.223C546.314,-328.223 546.314,-349.727 546.314,-349.727"/>
<polygon fill="black" stroke="black" points="542.814,-349.727 546.314,-359.727 549.814,-349.727 542.814,-349.727"/>
</g>
<!-- FormsModule  -->
<g id="node26" class="node"><title>FormsModule </title>
<polygon fill="#fb8072" stroke="black" points="486.328,-396 387.672,-396 387.672,-360 486.328,-360 486.328,-396"/>
<text text-anchor="middle" x="437" y="-373.8" font-family="Times,serif" font-size="14.00">FormsModule </text>
</g>
<!-- SharedModule&#45;&gt;FormsModule  -->
<g id="edge27" class="edge"><title>SharedModule&#45;&gt;FormsModule </title>
<path fill="none" stroke="black" stroke-dasharray="5,2" d="M489.713,-324C483.528,-324 479.316,-324 479.316,-324 479.316,-324 479.316,-349.718 479.316,-349.718"/>
<polygon fill="black" stroke="black" points="475.817,-349.718 479.316,-359.718 482.817,-349.718 475.817,-349.718"/>
</g>
<!-- RouterModule  -->
<g id="node27" class="node"><title>RouterModule </title>
<polygon fill="#fb8072" stroke="black" points="369.652,-396 268.348,-396 268.348,-360 369.652,-360 369.652,-396"/>
<text text-anchor="middle" x="319" y="-373.8" font-family="Times,serif" font-size="14.00">RouterModule </text>
</g>
<!-- SharedModule&#45;&gt;RouterModule  -->
<g id="edge28" class="edge"><title>SharedModule&#45;&gt;RouterModule </title>
<path fill="none" stroke="black" stroke-dasharray="5,2" d="M489.598,-319C421.931,-319 308.712,-319 308.712,-319 308.712,-319 308.712,-349.977 308.712,-349.977"/>
<polygon fill="black" stroke="black" points="305.212,-349.977 308.712,-359.977 312.212,-349.978 305.212,-349.977"/>
</g>
<!-- HttpModule  -->
<g id="node28" class="node"><title>HttpModule </title>
<polygon fill="#fb8072" stroke="black" points="249.938,-396 162.062,-396 162.062,-360 249.938,-360 249.938,-396"/>
<text text-anchor="middle" x="206" y="-373.8" font-family="Times,serif" font-size="14.00">HttpModule </text>
</g>
<!-- SharedModule&#45;&gt;HttpModule  -->
<g id="edge29" class="edge"><title>SharedModule&#45;&gt;HttpModule </title>
<path fill="none" stroke="black" stroke-dasharray="5,2" d="M489.506,-315C396.743,-315 206,-315 206,-315 206,-315 206,-349.778 206,-349.778"/>
<polygon fill="black" stroke="black" points="202.5,-349.778 206,-359.778 209.5,-349.778 202.5,-349.778"/>
</g>
<!-- JsonpModule  -->
<g id="node29" class="node"><title>JsonpModule </title>
<polygon fill="#fb8072" stroke="black" points="859.439,-396 764.561,-396 764.561,-360 859.439,-360 859.439,-396"/>
<text text-anchor="middle" x="812" y="-373.8" font-family="Times,serif" font-size="14.00">JsonpModule </text>
</g>
<!-- SharedModule&#45;&gt;JsonpModule  -->
<g id="edge30" class="edge"><title>SharedModule&#45;&gt;JsonpModule </title>
<path fill="none" stroke="black" stroke-dasharray="5,2" d="M588.329,-314C656.607,-314 771.602,-314 771.602,-314 771.602,-314 771.602,-349.831 771.602,-349.831"/>
<polygon fill="black" stroke="black" points="768.102,-349.831 771.602,-359.831 775.102,-349.831 768.102,-349.831"/>
</g>
<!-- DocComponent  -->
<g id="node30" class="node"><title>DocComponent </title>
<polygon fill="#fb8072" stroke="black" points="746.154,-396 637.846,-396 637.846,-360 746.154,-360 746.154,-396"/>
<text text-anchor="middle" x="692" y="-373.8" font-family="Times,serif" font-size="14.00">DocComponent </text>
</g>
<!-- SharedModule&#45;&gt;DocComponent  -->
<g id="edge31" class="edge"><title>SharedModule&#45;&gt;DocComponent </title>
<path fill="none" stroke="black" stroke-dasharray="5,2" d="M588.252,-321C632.979,-321 692,-321 692,-321 692,-321 692,-349.965 692,-349.965"/>
<polygon fill="black" stroke="black" points="688.5,-349.965 692,-359.965 695.5,-349.965 688.5,-349.965"/>
</g>
<!-- FormsModule -->
<g id="node20" class="node"><title>FormsModule</title>
<polygon fill="#8dd3c7" stroke="black" points="119.829,-252 116.829,-256 95.8288,-256 92.8288,-252 24.1712,-252 24.1712,-216 119.829,-216 119.829,-252"/>
<text text-anchor="middle" x="72" y="-229.8" font-family="Times,serif" font-size="14.00">FormsModule</text>
</g>
<!-- FormsModule&#45;&gt;SharedModule -->
<g id="edge20" class="edge"><title>FormsModule&#45;&gt;SharedModule</title>
<path fill="none" stroke="black" d="M72,-252.011C72,-274.485 72,-310 72,-310 72,-310 479.465,-310 479.465,-310"/>
<polygon fill="black" stroke="black" points="479.465,-313.5 489.465,-310 479.465,-306.5 479.465,-313.5"/>
</g>
<!-- RouterModule -->
<g id="node21" class="node"><title>RouterModule</title>
<polygon fill="#8dd3c7" stroke="black" points="587.653,-252 584.653,-256 563.653,-256 560.653,-252 490.347,-252 490.347,-216 587.653,-216 587.653,-252"/>
<text text-anchor="middle" x="539" y="-229.8" font-family="Times,serif" font-size="14.00">RouterModule</text>
</g>
<!-- RouterModule&#45;&gt;SharedModule -->
<g id="edge21" class="edge"><title>RouterModule&#45;&gt;SharedModule</title>
<path fill="none" stroke="black" d="M514.587,-252.011C514.587,-252.011 514.587,-281.855 514.587,-281.855"/>
<polygon fill="black" stroke="black" points="511.087,-281.855 514.587,-291.855 518.087,-281.855 511.087,-281.855"/>
</g>
<!-- HttpModule -->
<g id="node22" class="node"><title>HttpModule</title>
<polygon fill="#8dd3c7" stroke="black" points="472.439,-252 469.439,-256 448.439,-256 445.439,-252 387.561,-252 387.561,-216 472.439,-216 472.439,-252"/>
<text text-anchor="middle" x="430" y="-229.8" font-family="Times,serif" font-size="14.00">HttpModule</text>
</g>
<!-- HttpModule&#45;&gt;SharedModule -->
<g id="edge22" class="edge"><title>HttpModule&#45;&gt;SharedModule</title>
<path fill="none" stroke="black" d="M430,-252.222C430,-270.829 430,-297 430,-297 430,-297 479.603,-297 479.603,-297"/>
<polygon fill="black" stroke="black" points="479.603,-300.5 489.603,-297 479.603,-293.5 479.603,-300.5"/>
</g>
<!-- JsonpModule -->
<g id="node23" class="node"><title>JsonpModule</title>
<polygon fill="#8dd3c7" stroke="black" points="369.94,-252 366.94,-256 345.94,-256 342.94,-252 278.06,-252 278.06,-216 369.94,-216 369.94,-252"/>
<text text-anchor="middle" x="324" y="-229.8" font-family="Times,serif" font-size="14.00">JsonpModule</text>
</g>
<!-- JsonpModule&#45;&gt;SharedModule -->
<g id="edge23" class="edge"><title>JsonpModule&#45;&gt;SharedModule</title>
<path fill="none" stroke="black" d="M339.144,-252.308C339.144,-272.146 339.144,-301 339.144,-301 339.144,-301 479.597,-301 479.597,-301"/>
<polygon fill="black" stroke="black" points="479.597,-304.5 489.597,-301 479.597,-297.5 479.597,-304.5"/>
</g>
<!-- RebirthNGModule -->
<g id="node24" class="node"><title>RebirthNGModule</title>
<polygon fill="#8dd3c7" stroke="black" points="259.756,-252 256.756,-256 235.756,-256 232.756,-252 138.244,-252 138.244,-216 259.756,-216 259.756,-252"/>
<text text-anchor="middle" x="199" y="-229.8" font-family="Times,serif" font-size="14.00">RebirthNGModule</text>
</g>
<!-- RebirthNGModule&#45;&gt;SharedModule -->
<g id="edge24" class="edge"><title>RebirthNGModule&#45;&gt;SharedModule</title>
<path fill="none" stroke="black" d="M254.923,-252.169C254.923,-273.498 254.923,-306 254.923,-306 254.923,-306 479.518,-306 479.518,-306"/>
<polygon fill="black" stroke="black" points="479.518,-309.5 489.518,-306 479.518,-302.5 479.518,-309.5"/>
</g>
</g>
</svg>
