<?xml version="1.0" encoding="UTF-8" standalone="no"?>
<!DOCTYPE svg PUBLIC "-//W3C//DTD SVG 1.1//EN"
 "http://www.w3.org/Graphics/SVG/1.1/DTD/svg11.dtd">
<!-- Generated by graphviz version 2.38.0 (20140413.2041)
 -->
<!-- Title: dependencies Pages: 1 -->
<svg width="1848pt" height="496pt"
 viewBox="0.00 0.00 1848.00 496.00" xmlns="http://www.w3.org/2000/svg" xmlns:xlink="http://www.w3.org/1999/xlink">
<g id="graph0" class="graph" transform="scale(1 1) rotate(0) translate(4 492)">
<title>dependencies</title>
<polygon fill="white" stroke="none" points="-4,4 -4,-492 1844,-492 1844,4 -4,4"/>
<text text-anchor="start" x="899.009" y="-42.4" font-family="sans-serif" font-weight="bold" font-size="14.00">Legend</text>
<polygon fill="#ffffb3" stroke="none" points="686,-10 686,-30 706,-30 706,-10 686,-10"/>
<text text-anchor="start" x="709.629" y="-15.4" font-family="sans-serif" font-size="14.00"> &#160;Declarations</text>
<polygon fill="#8dd3c7" stroke="none" points="799,-10 799,-30 819,-30 819,-10 799,-10"/>
<text text-anchor="start" x="822.725" y="-15.4" font-family="sans-serif" font-size="14.00"> &#160;Module</text>
<polygon fill="#80b1d3" stroke="none" points="885,-10 885,-30 905,-30 905,-10 885,-10"/>
<text text-anchor="start" x="908.781" y="-15.4" font-family="sans-serif" font-size="14.00"> &#160;Bootstrap</text>
<polygon fill="#fdb462" stroke="none" points="982,-10 982,-30 1002,-30 1002,-10 982,-10"/>
<text text-anchor="start" x="1005.67" y="-15.4" font-family="sans-serif" font-size="14.00"> &#160;Providers</text>
<polygon fill="#fb8072" stroke="none" points="1078,-10 1078,-30 1098,-30 1098,-10 1078,-10"/>
<text text-anchor="start" x="1101.73" y="-15.4" font-family="sans-serif" font-size="14.00"> &#160;Exports</text>
<g id="clust1" class="cluster"><title>cluster_AppModule</title>
<polygon fill="none" stroke="black" stroke-dasharray="1,5" points="695,-276 695,-480 1684,-480 1684,-276 695,-276"/>
</g>
<g id="clust2" class="cluster"><title>cluster_AppModule_declarations</title>
<polygon fill="none" stroke="black" points="1554,-284 1554,-336 1676,-336 1676,-284 1554,-284"/>
</g>
<g id="clust4" class="cluster"><title>cluster_AppModule_imports</title>
<polygon fill="none" stroke="black" points="703,-284 703,-336 1546,-336 1546,-284 703,-284"/>
</g>
<g id="clust6" class="cluster"><title>cluster_AppModule_bootstrap</title>
<polygon fill="none" stroke="black" points="1186,-420 1186,-472 1310,-472 1310,-420 1186,-420"/>
</g>
<g id="clust8" class="cluster"><title>cluster_EChartsDemoModule</title>
<polygon fill="none" stroke="black" stroke-dasharray="1,5" points="1062,-200 1062,-268 1742,-268 1742,-200 1062,-200"/>
</g>
<g id="clust9" class="cluster"><title>cluster_EChartsDemoModule_declarations</title>
<polygon fill="none" stroke="black" points="1558,-208 1558,-260 1734,-260 1734,-208 1558,-208"/>
</g>
<g id="clust11" class="cluster"><title>cluster_EChartsDemoModule_imports</title>
<polygon fill="none" stroke="black" points="1258,-208 1258,-260 1550,-260 1550,-208 1258,-208"/>
</g>
<g id="clust12" class="cluster"><title>cluster_EChartsDemoModule_exports</title>
<polygon fill="none" stroke="black" points="1070,-208 1070,-260 1250,-260 1250,-208 1070,-208"/>
</g>
<g id="clust15" class="cluster"><title>cluster_EChartsModule</title>
<polygon fill="none" stroke="black" stroke-dasharray="1,5" points="892,-70 892,-268 1054,-268 1054,-70 892,-70"/>
</g>
<g id="clust16" class="cluster"><title>cluster_EChartsModule_declarations</title>
<polygon fill="none" stroke="black" points="904,-78 904,-130 1046,-130 1046,-78 904,-78"/>
</g>
<g id="clust19" class="cluster"><title>cluster_EChartsModule_exports</title>
<polygon fill="none" stroke="black" points="900,-208 900,-260 1046,-260 1046,-208 900,-208"/>
</g>
<g id="clust22" class="cluster"><title>cluster_RebirthEChartsModule</title>
<polygon fill="none" stroke="black" stroke-dasharray="1,5" points="1692,-276 1692,-344 1832,-344 1832,-276 1692,-276"/>
</g>
<g id="clust25" class="cluster"><title>cluster_RebirthEChartsModule_exports</title>
<polygon fill="none" stroke="black" points="1700,-284 1700,-336 1824,-336 1824,-284 1700,-284"/>
</g>
<g id="clust28" class="cluster"><title>cluster_SharedModule</title>
<polygon fill="none" stroke="black" stroke-dasharray="1,5" points="8,-200 8,-412 687,-412 687,-200 8,-200"/>
</g>
<g id="clust29" class="cluster"><title>cluster_SharedModule_declarations</title>
<polygon fill="none" stroke="black" points="392,-208 392,-260 679,-260 679,-208 392,-208"/>
</g>
<g id="clust32" class="cluster"><title>cluster_SharedModule_imports</title>
<polygon fill="none" stroke="black" points="16,-208 16,-260 384,-260 384,-208 16,-208"/>
</g>
<g id="clust33" class="cluster"><title>cluster_SharedModule_exports</title>
<polygon fill="none" stroke="black" points="173,-352 173,-404 667,-404 667,-352 173,-352"/>
</g>
<!-- AppComponent -->
<g id="node1" class="node"><title>AppComponent</title>
<polygon fill="#ffffb3" stroke="black" points="1667.94,-328 1562.06,-328 1562.06,-292 1667.94,-292 1667.94,-328"/>
<text text-anchor="middle" x="1615" y="-305.8" font-family="Times,serif" font-size="14.00">AppComponent</text>
</g>
<!-- AppModule -->
<g id="node2" class="node"><title>AppModule</title>
<polygon fill="#8dd3c7" stroke="black" points="1289.66,-396 1286.66,-400 1265.66,-400 1262.66,-396 1206.34,-396 1206.34,-360 1289.66,-360 1289.66,-396"/>
<text text-anchor="middle" x="1248" y="-373.8" font-family="Times,serif" font-size="14.00">AppModule</text>
</g>
<!-- AppComponent&#45;&gt;AppModule -->
<g id="edge1" class="edge"><title>AppComponent&#45;&gt;AppModule</title>
<path fill="none" stroke="black" d="M1615,-328.292C1615,-350.206 1615,-384 1615,-384 1615,-384 1299.74,-384 1299.74,-384"/>
<polygon fill="black" stroke="black" points="1299.74,-380.5 1289.74,-384 1299.74,-387.5 1299.74,-380.5"/>
</g>
<!-- AppComponent  -->
<g id="node8" class="node"><title>AppComponent </title>
<polygon fill="#80b1d3" stroke="black" points="1302.44,-464 1193.56,-464 1193.56,-428 1302.44,-428 1302.44,-464"/>
<text text-anchor="middle" x="1248" y="-441.8" font-family="Times,serif" font-size="14.00">AppComponent </text>
</g>
<!-- AppModule&#45;&gt;AppComponent  -->
<g id="edge7" class="edge"><title>AppModule&#45;&gt;AppComponent </title>
<path fill="none" stroke="black" stroke-dasharray="1,5" d="M1248,-396.223C1248,-396.223 1248,-417.727 1248,-417.727"/>
<polygon fill="black" stroke="black" points="1244.5,-417.727 1248,-427.727 1251.5,-417.727 1244.5,-417.727"/>
</g>
<!-- BrowserModule -->
<g id="node3" class="node"><title>BrowserModule</title>
<polygon fill="#8dd3c7" stroke="black" points="1381.47,-328 1378.47,-332 1357.47,-332 1354.47,-328 1274.53,-328 1274.53,-292 1381.47,-292 1381.47,-328"/>
<text text-anchor="middle" x="1328" y="-305.8" font-family="Times,serif" font-size="14.00">BrowserModule</text>
</g>
<!-- BrowserModule&#45;&gt;AppModule -->
<g id="edge2" class="edge"><title>BrowserModule&#45;&gt;AppModule</title>
<path fill="none" stroke="black" d="M1282.17,-328.223C1282.17,-328.223 1282.17,-349.727 1282.17,-349.727"/>
<polygon fill="black" stroke="black" points="1278.67,-349.727 1282.17,-359.727 1285.67,-349.727 1278.67,-349.727"/>
</g>
<!-- RouterModule.forRoot(args) -->
<g id="node4" class="node"><title>RouterModule.forRoot(args)</title>
<polygon fill="#8dd3c7" stroke="black" points="1256.84,-328 1253.84,-332 1232.84,-332 1229.84,-328 1079.16,-328 1079.16,-292 1256.84,-292 1256.84,-328"/>
<text text-anchor="middle" x="1168" y="-305.8" font-family="Times,serif" font-size="14.00">RouterModule.forRoot(args)</text>
</g>
<!-- RouterModule.forRoot(args)&#45;&gt;AppModule -->
<g id="edge3" class="edge"><title>RouterModule.forRoot(args)&#45;&gt;AppModule</title>
<path fill="none" stroke="black" d="M1231.42,-328.223C1231.42,-328.223 1231.42,-349.727 1231.42,-349.727"/>
<polygon fill="black" stroke="black" points="1227.92,-349.727 1231.42,-359.727 1234.92,-349.727 1227.92,-349.727"/>
</g>
<!-- SharedModule.forRoot() -->
<g id="node5" class="node"><title>SharedModule.forRoot()</title>
<polygon fill="#8dd3c7" stroke="black" points="1061.29,-328 1058.29,-332 1037.29,-332 1034.29,-328 906.708,-328 906.708,-292 1061.29,-292 1061.29,-328"/>
<text text-anchor="middle" x="984" y="-305.8" font-family="Times,serif" font-size="14.00">SharedModule.forRoot()</text>
</g>
<!-- SharedModule.forRoot()&#45;&gt;AppModule -->
<g id="edge4" class="edge"><title>SharedModule.forRoot()&#45;&gt;AppModule</title>
<path fill="none" stroke="black" d="M984,-328.267C984,-346.555 984,-372 984,-372 984,-372 1196.17,-372 1196.17,-372"/>
<polygon fill="black" stroke="black" points="1196.17,-375.5 1206.17,-372 1196.17,-368.5 1196.17,-375.5"/>
</g>
<!-- RebirthNGModule.forRoot() -->
<g id="node6" class="node"><title>RebirthNGModule.forRoot()</title>
<polygon fill="#8dd3c7" stroke="black" points="889.126,-328 886.126,-332 865.126,-332 862.126,-328 710.874,-328 710.874,-292 889.126,-292 889.126,-328"/>
<text text-anchor="middle" x="800" y="-305.8" font-family="Times,serif" font-size="14.00">RebirthNGModule.forRoot()</text>
</g>
<!-- RebirthNGModule.forRoot()&#45;&gt;AppModule -->
<g id="edge5" class="edge"><title>RebirthNGModule.forRoot()&#45;&gt;AppModule</title>
<path fill="none" stroke="black" d="M800,-328.292C800,-350.206 800,-384 800,-384 800,-384 1196.26,-384 1196.26,-384"/>
<polygon fill="black" stroke="black" points="1196.26,-387.5 1206.26,-384 1196.26,-380.5 1196.26,-387.5"/>
</g>
<!-- EChartsDemoModule -->
<g id="node7" class="node"><title>EChartsDemoModule</title>
<polygon fill="#8dd3c7" stroke="black" points="1538.36,-328 1535.36,-332 1514.36,-332 1511.36,-328 1399.64,-328 1399.64,-292 1538.36,-292 1538.36,-328"/>
<text text-anchor="middle" x="1469" y="-305.8" font-family="Times,serif" font-size="14.00">EChartsDemoModule</text>
</g>
<!-- EChartsDemoModule&#45;&gt;AppModule -->
<g id="edge6" class="edge"><title>EChartsDemoModule&#45;&gt;AppModule</title>
<path fill="none" stroke="black" d="M1469,-328.267C1469,-346.555 1469,-372 1469,-372 1469,-372 1299.83,-372 1299.83,-372"/>
<polygon fill="black" stroke="black" points="1299.83,-368.5 1289.83,-372 1299.83,-375.5 1299.83,-368.5"/>
</g>
<!-- EChartsDemoComponent  -->
<g id="node12" class="node"><title>EChartsDemoComponent </title>
<polygon fill="#fb8072" stroke="black" points="1242.14,-252 1077.86,-252 1077.86,-216 1242.14,-216 1242.14,-252"/>
<text text-anchor="middle" x="1160" y="-229.8" font-family="Times,serif" font-size="14.00">EChartsDemoComponent </text>
</g>
<!-- EChartsDemoModule&#45;&gt;EChartsDemoComponent  -->
<g id="edge11" class="edge"><title>EChartsDemoModule&#45;&gt;EChartsDemoComponent </title>
<path fill="none" stroke="black" stroke-dasharray="5,2" d="M1455.11,-291.806C1455.11,-283.722 1455.11,-276 1455.11,-276 1455.11,-276 1160.7,-276 1160.7,-276 1160.7,-276 1160.7,-262.056 1160.7,-262.056"/>
<polygon fill="black" stroke="black" points="1164.2,-262.055 1160.7,-252.056 1157.2,-262.056 1164.2,-262.055"/>
</g>
<!-- EChartsDemoComponent -->
<g id="node9" class="node"><title>EChartsDemoComponent</title>
<polygon fill="#ffffb3" stroke="black" points="1726.14,-252 1565.86,-252 1565.86,-216 1726.14,-216 1726.14,-252"/>
<text text-anchor="middle" x="1646" y="-229.8" font-family="Times,serif" font-size="14.00">EChartsDemoComponent</text>
</g>
<!-- EChartsDemoComponent&#45;&gt;EChartsDemoModule -->
<g id="edge8" class="edge"><title>EChartsDemoComponent&#45;&gt;EChartsDemoModule</title>
<path fill="none" stroke="black" d="M1565.73,-234C1557.62,-234 1552.3,-234 1552.3,-234 1552.3,-234 1552.3,-310 1552.3,-310 1552.3,-310 1548.55,-310 1548.55,-310"/>
<polygon fill="black" stroke="black" points="1548.55,-306.5 1538.55,-310 1548.55,-313.5 1548.55,-306.5"/>
</g>
<!-- CommonModule -->
<g id="node10" class="node"><title>CommonModule</title>
<polygon fill="#8dd3c7" stroke="black" points="1377.67,-252 1374.67,-256 1353.67,-256 1350.67,-252 1266.33,-252 1266.33,-216 1377.67,-216 1377.67,-252"/>
<text text-anchor="middle" x="1322" y="-229.8" font-family="Times,serif" font-size="14.00">CommonModule</text>
</g>
<!-- CommonModule&#45;&gt;EChartsDemoModule -->
<g id="edge9" class="edge"><title>CommonModule&#45;&gt;EChartsDemoModule</title>
<path fill="none" stroke="black" d="M1377.89,-234C1384.29,-234 1388.58,-234 1388.58,-234 1388.58,-234 1388.58,-310 1388.58,-310 1388.58,-310 1389.67,-310 1389.67,-310"/>
<polygon fill="black" stroke="black" points="1389.43,-313.5 1399.43,-310 1389.43,-306.5 1389.43,-313.5"/>
</g>
<!-- EChartsModule -->
<g id="node14" class="node"><title>EChartsModule</title>
<polygon fill="#8dd3c7" stroke="black" points="1036.15,-187 1033.15,-191 1012.15,-191 1009.15,-187 931.85,-187 931.85,-151 1036.15,-151 1036.15,-187"/>
<text text-anchor="middle" x="984" y="-164.8" font-family="Times,serif" font-size="14.00">EChartsModule</text>
</g>
<!-- CommonModule&#45;&gt;EChartsModule -->
<g id="edge13" class="edge"><title>CommonModule&#45;&gt;EChartsModule</title>
<path fill="none" stroke="black" d="M1322,-215.977C1322,-198.627 1322,-175 1322,-175 1322,-175 1046.44,-175 1046.44,-175"/>
<polygon fill="black" stroke="black" points="1046.44,-171.5 1036.44,-175 1046.44,-178.5 1046.44,-171.5"/>
</g>
<!-- SharedModule -->
<g id="node19" class="node"><title>SharedModule</title>
<polygon fill="#8dd3c7" stroke="black" points="523.423,-328 520.423,-332 499.423,-332 496.423,-328 424.577,-328 424.577,-292 523.423,-292 523.423,-328"/>
<text text-anchor="middle" x="474" y="-305.8" font-family="Times,serif" font-size="14.00">SharedModule</text>
</g>
<!-- CommonModule&#45;&gt;SharedModule -->
<g id="edge19" class="edge"><title>CommonModule&#45;&gt;SharedModule</title>
<path fill="none" stroke="black" d="M1270.34,-252.058C1270.34,-256.495 1270.34,-260 1270.34,-260 1270.34,-260 474,-260 474,-260 474,-260 474,-281.949 474,-281.949"/>
<polygon fill="black" stroke="black" points="470.5,-281.949 474,-291.949 477.5,-281.949 470.5,-281.949"/>
</g>
<!-- RebirthEChartsModule -->
<g id="node11" class="node"><title>RebirthEChartsModule</title>
<polygon fill="#8dd3c7" stroke="black" points="1542.14,-252 1539.14,-256 1518.14,-256 1515.14,-252 1395.86,-252 1395.86,-216 1542.14,-216 1542.14,-252"/>
<text text-anchor="middle" x="1469" y="-229.8" font-family="Times,serif" font-size="14.00">RebirthEChartsModule</text>
</g>
<!-- RebirthEChartsModule&#45;&gt;EChartsDemoModule -->
<g id="edge10" class="edge"><title>RebirthEChartsModule&#45;&gt;EChartsDemoModule</title>
<path fill="none" stroke="black" d="M1482.89,-252.011C1482.89,-252.011 1482.89,-281.855 1482.89,-281.855"/>
<polygon fill="black" stroke="black" points="1479.39,-281.855 1482.89,-291.855 1486.39,-281.855 1479.39,-281.855"/>
</g>
<!-- EChartsModule  -->
<g id="node16" class="node"><title>EChartsModule </title>
<polygon fill="#fb8072" stroke="black" points="1816.15,-328 1707.85,-328 1707.85,-292 1816.15,-292 1816.15,-328"/>
<text text-anchor="middle" x="1762" y="-305.8" font-family="Times,serif" font-size="14.00">EChartsModule </text>
</g>
<!-- RebirthEChartsModule&#45;&gt;EChartsModule  -->
<g id="edge16" class="edge"><title>RebirthEChartsModule&#45;&gt;EChartsModule </title>
<path fill="none" stroke="black" stroke-dasharray="5,2" d="M1510.66,-252.194C1510.66,-260.278 1510.66,-268 1510.66,-268 1510.66,-268 1717.12,-268 1717.12,-268 1717.12,-268 1717.12,-281.944 1717.12,-281.944"/>
<polygon fill="black" stroke="black" points="1713.62,-281.944 1717.12,-291.944 1720.62,-281.945 1713.62,-281.944"/>
</g>
<!-- RebirthEChartsModule&#45;&gt;SharedModule -->
<g id="edge23" class="edge"><title>RebirthEChartsModule&#45;&gt;SharedModule</title>
<path fill="none" stroke="black" d="M1427.34,-252.051C1427.34,-266.373 1427.34,-284 1427.34,-284 1427.34,-284 498.606,-284 498.606,-284 498.606,-284 498.606,-284.794 498.606,-284.794"/>
<polygon fill="black" stroke="black" points="495.106,-281.942 498.606,-291.942 502.106,-281.942 495.106,-281.942"/>
</g>
<!-- EChartsComponent -->
<g id="node13" class="node"><title>EChartsComponent</title>
<polygon fill="#ffffb3" stroke="black" points="1038.43,-122 911.567,-122 911.567,-86 1038.43,-86 1038.43,-122"/>
<text text-anchor="middle" x="975" y="-99.8" font-family="Times,serif" font-size="14.00">EChartsComponent</text>
</g>
<!-- EChartsComponent&#45;&gt;EChartsModule -->
<g id="edge12" class="edge"><title>EChartsComponent&#45;&gt;EChartsModule</title>
<path fill="none" stroke="black" d="M984,-122.106C984,-122.106 984,-140.991 984,-140.991"/>
<polygon fill="black" stroke="black" points="980.5,-140.991 984,-150.991 987.5,-140.991 980.5,-140.991"/>
</g>
<!-- EChartsModule&#45;&gt;RebirthEChartsModule -->
<g id="edge15" class="edge"><title>EChartsModule&#45;&gt;RebirthEChartsModule</title>
<path fill="none" stroke="black" d="M1036.36,-163C1161.77,-163 1469,-163 1469,-163 1469,-163 1469,-205.716 1469,-205.716"/>
<polygon fill="black" stroke="black" points="1465.5,-205.716 1469,-215.716 1472.5,-205.716 1465.5,-205.716"/>
</g>
<!-- EChartsComponent  -->
<g id="node15" class="node"><title>EChartsComponent </title>
<polygon fill="#fb8072" stroke="black" points="1037.93,-252 908.068,-252 908.068,-216 1037.93,-216 1037.93,-252"/>
<text text-anchor="middle" x="973" y="-229.8" font-family="Times,serif" font-size="14.00">EChartsComponent </text>
</g>
<!-- EChartsModule&#45;&gt;EChartsComponent  -->
<g id="edge14" class="edge"><title>EChartsModule&#45;&gt;EChartsComponent </title>
<path fill="none" stroke="black" stroke-dasharray="5,2" d="M984,-187.106C984,-187.106 984,-205.991 984,-205.991"/>
<polygon fill="black" stroke="black" points="980.5,-205.991 984,-215.991 987.5,-205.991 980.5,-205.991"/>
</g>
<!-- DocComponent -->
<g id="node17" class="node"><title>DocComponent</title>
<polygon fill="#ffffb3" stroke="black" points="671.154,-252 566.846,-252 566.846,-216 671.154,-216 671.154,-252"/>
<text text-anchor="middle" x="619" y="-229.8" font-family="Times,serif" font-size="14.00">DocComponent</text>
</g>
<!-- DocComponent&#45;&gt;SharedModule -->
<g id="edge17" class="edge"><title>DocComponent&#45;&gt;SharedModule</title>
<path fill="none" stroke="black" d="M612.625,-252.027C612.625,-272.767 612.625,-304 612.625,-304 612.625,-304 533.264,-304 533.264,-304"/>
<polygon fill="black" stroke="black" points="533.264,-300.5 523.264,-304 533.264,-307.5 533.264,-300.5"/>
</g>
<!-- DocContentComponent -->
<g id="node18" class="node"><title>DocContentComponent</title>
<polygon fill="#ffffb3" stroke="black" points="548.486,-252 399.514,-252 399.514,-216 548.486,-216 548.486,-252"/>
<text text-anchor="middle" x="474" y="-229.8" font-family="Times,serif" font-size="14.00">DocContentComponent</text>
</g>
<!-- DocContentComponent&#45;&gt;SharedModule -->
<g id="edge18" class="edge"><title>DocContentComponent&#45;&gt;SharedModule</title>
<path fill="none" stroke="black" d="M449.394,-252.011C449.394,-252.011 449.394,-281.855 449.394,-281.855"/>
<polygon fill="black" stroke="black" points="445.895,-281.855 449.394,-291.855 452.895,-281.855 445.895,-281.855"/>
</g>
<!-- CommonModule  -->
<g id="node23" class="node"><title>CommonModule </title>
<polygon fill="#fb8072" stroke="black" points="412.668,-396 297.332,-396 297.332,-360 412.668,-360 412.668,-396"/>
<text text-anchor="middle" x="355" y="-373.8" font-family="Times,serif" font-size="14.00">CommonModule </text>
</g>
<!-- SharedModule&#45;&gt;CommonModule  -->
<g id="edge24" class="edge"><title>SharedModule&#45;&gt;CommonModule </title>
<path fill="none" stroke="black" stroke-dasharray="5,2" d="M424.614,-322C414.075,-322 406.045,-322 406.045,-322 406.045,-322 406.045,-349.973 406.045,-349.973"/>
<polygon fill="black" stroke="black" points="402.545,-349.973 406.045,-359.973 409.545,-349.973 402.545,-349.973"/>
</g>
<!-- FormsModule  -->
<g id="node24" class="node"><title>FormsModule </title>
<polygon fill="#fb8072" stroke="black" points="279.328,-396 180.672,-396 180.672,-360 279.328,-360 279.328,-396"/>
<text text-anchor="middle" x="230" y="-373.8" font-family="Times,serif" font-size="14.00">FormsModule </text>
</g>
<!-- SharedModule&#45;&gt;FormsModule  -->
<g id="edge25" class="edge"><title>SharedModule&#45;&gt;FormsModule </title>
<path fill="none" stroke="black" stroke-dasharray="5,2" d="M424.643,-316C363.991,-316 269.026,-316 269.026,-316 269.026,-316 269.026,-349.733 269.026,-349.733"/>
<polygon fill="black" stroke="black" points="265.526,-349.733 269.026,-359.733 272.526,-349.733 265.526,-349.733"/>
</g>
<!-- RouterModule  -->
<g id="node25" class="node"><title>RouterModule </title>
<polygon fill="#fb8072" stroke="black" points="658.652,-396 557.348,-396 557.348,-360 658.652,-360 658.652,-396"/>
<text text-anchor="middle" x="608" y="-373.8" font-family="Times,serif" font-size="14.00">RouterModule </text>
</g>
<!-- SharedModule&#45;&gt;RouterModule  -->
<g id="edge26" class="edge"><title>SharedModule&#45;&gt;RouterModule </title>
<path fill="none" stroke="black" stroke-dasharray="5,2" d="M523.429,-316C543.5,-316 562.049,-316 562.049,-316 562.049,-316 562.049,-349.733 562.049,-349.733"/>
<polygon fill="black" stroke="black" points="558.549,-349.733 562.049,-359.733 565.549,-349.733 558.549,-349.733"/>
</g>
<!-- DocComponent  -->
<g id="node26" class="node"><title>DocComponent </title>
<polygon fill="#fb8072" stroke="black" points="539.154,-396 430.846,-396 430.846,-360 539.154,-360 539.154,-396"/>
<text text-anchor="middle" x="485" y="-373.8" font-family="Times,serif" font-size="14.00">DocComponent </text>
</g>
<!-- SharedModule&#45;&gt;DocComponent  -->
<g id="edge27" class="edge"><title>SharedModule&#45;&gt;DocComponent </title>
<path fill="none" stroke="black" stroke-dasharray="5,2" d="M477.067,-328.223C477.067,-328.223 477.067,-349.727 477.067,-349.727"/>
<polygon fill="black" stroke="black" points="473.567,-349.727 477.067,-359.727 480.567,-349.727 473.567,-349.727"/>
</g>
<!-- FormsModule -->
<g id="node20" class="node"><title>FormsModule</title>
<polygon fill="#8dd3c7" stroke="black" points="119.829,-252 116.829,-256 95.8288,-256 92.8288,-252 24.1712,-252 24.1712,-216 119.829,-216 119.829,-252"/>
<text text-anchor="middle" x="72" y="-229.8" font-family="Times,serif" font-size="14.00">FormsModule</text>
</g>
<!-- FormsModule&#45;&gt;SharedModule -->
<g id="edge20" class="edge"><title>FormsModule&#45;&gt;SharedModule</title>
<path fill="none" stroke="black" d="M72,-252.011C72,-274.485 72,-310 72,-310 72,-310 414.707,-310 414.707,-310"/>
<polygon fill="black" stroke="black" points="414.707,-313.5 424.707,-310 414.707,-306.5 414.707,-313.5"/>
</g>
<!-- RouterModule -->
<g id="node21" class="node"><title>RouterModule</title>
<polygon fill="#8dd3c7" stroke="black" points="375.653,-252 372.653,-256 351.653,-256 348.653,-252 278.347,-252 278.347,-216 375.653,-216 375.653,-252"/>
<text text-anchor="middle" x="327" y="-229.8" font-family="Times,serif" font-size="14.00">RouterModule</text>
</g>
<!-- RouterModule&#45;&gt;SharedModule -->
<g id="edge21" class="edge"><title>RouterModule&#45;&gt;SharedModule</title>
<path fill="none" stroke="black" d="M336.621,-252.169C336.621,-271.09 336.621,-298 336.621,-298 336.621,-298 414.403,-298 414.403,-298"/>
<polygon fill="black" stroke="black" points="414.403,-301.5 424.403,-298 414.403,-294.5 414.403,-301.5"/>
</g>
<!-- RebirthNGModule -->
<g id="node22" class="node"><title>RebirthNGModule</title>
<polygon fill="#8dd3c7" stroke="black" points="259.756,-252 256.756,-256 235.756,-256 232.756,-252 138.244,-252 138.244,-216 259.756,-216 259.756,-252"/>
<text text-anchor="middle" x="199" y="-229.8" font-family="Times,serif" font-size="14.00">RebirthNGModule</text>
</g>
<!-- RebirthNGModule&#45;&gt;SharedModule -->
<g id="edge22" class="edge"><title>RebirthNGModule&#45;&gt;SharedModule</title>
<path fill="none" stroke="black" d="M220.232,-252.027C220.232,-272.767 220.232,-304 220.232,-304 220.232,-304 414.77,-304 414.77,-304"/>
<polygon fill="black" stroke="black" points="414.77,-307.5 424.77,-304 414.77,-300.5 414.77,-307.5"/>
</g>
</g>
</svg>
